<?xml version="1.0" encoding="utf-8"?>
<svg xmlns="http://www.w3.org/2000/svg" xmlns:xlink="http://www.w3.org/1999/xlink" x="0px" y="0px"
	 viewBox="0 0 1720 633">
<style type="text/css">
	.st0{display:none;}
	.st1{display:inline;}
	.st2{fill:#EFEFEF;}
	.st3{fill:#9623E4;}
	.st4{fill:none;stroke:#EFEFEF;stroke-width:11;stroke-miterlimit:10;}
	.st5{fill:#9623E4;stroke:#EFEFEF;stroke-width:11;stroke-miterlimit:10;}
	.st6{fill:#8228E0;}
	.st7{fill:url(#SVGID_1_);stroke:#FFFFFF;stroke-width:10.7052;stroke-miterlimit:10;}
	.st8{fill:#CE1B64;}
	.st9{fill:#008AD1;stroke:#EFEFEF;stroke-width:11;stroke-miterlimit:10;}
	.st10{fill:#F3711B;}
	.st11{fill:#FCB808;stroke:#EFEFEF;stroke-width:11;stroke-miterlimit:10;}
	.st12{fill:#04B34A;stroke:#EFEFEF;stroke-width:11;stroke-miterlimit:10;}
	.st13{fill:url(#SVGID_2_);stroke:#FFFFFF;stroke-width:10.7052;stroke-miterlimit:10;}
	.st14{fill:url(#SVGID_3_);stroke:#FFFFFF;stroke-width:10.7052;stroke-miterlimit:10;}
	.st15{fill:url(#SVGID_4_);stroke:#FFFFFF;stroke-width:10.7052;stroke-miterlimit:10;}
	.st16{display:inline;fill:#8228E0;}
	.st17{fill:#595959;stroke:#EFEFEF;stroke-width:11;stroke-miterlimit:10;}
	.st18{fill:#686868;stroke:#EFEFEF;stroke-width:11;stroke-miterlimit:10;}
	.st19{fill:#8F8F8F;stroke:#EFEFEF;stroke-width:11;stroke-miterlimit:10;}
	.st20{fill:#B9B9B9;stroke:#EFEFEF;stroke-width:11;stroke-miterlimit:10;}
	.st21{fill:#737373;stroke:#EFEFEF;stroke-width:11;stroke-miterlimit:10;}
	.st22{fill:#575757;}
	.st23{fill:url(#SVGID_5_);stroke:#FFFFFF;stroke-width:10.7052;stroke-miterlimit:10;}
	.st24{fill:url(#SVGID_6_);stroke:#FFFFFF;stroke-width:10.7052;stroke-miterlimit:10;}
	.st25{display:inline;fill:#575757;}
	.st26{display:inline;fill:none;stroke:#00B7FF;stroke-width:4.0667;stroke-miterlimit:10;}
</style>
<g id="marca_x5F_c" class="st0">
</g>
<g id="marca_x5F_c_1_" class="st0">
</g>
<g id="marca_H">
	<g>
		<g>
			<g>
				<g>
					<path class="st6" d="M793.6,381.4c-1.6,3.2-4.2,4.8-8.4,4.8h-12.6c-4.2,0-6.4-1.6-8.1-4.8l-23.8-53.2
						c-2.9-6.1-6.8-20.3-8.4-26.4c1,4.8,2.3,22.2,2.3,26.7v107.6c0,4.5-3.9,8.4-8.4,8.4h-11.6c-4.2,0-8.1-3.9-8.1-8.4V249.9
						c0-4.5,3.9-8.4,8.1-8.4h11.9c3.2,0,6.4,1.6,8.1,5.5l38.7,86c1.9,4.5,4.8,11.9,6.1,17.7c1.3-5.5,4.2-13.5,6.1-17.7l38.7-86
						c1.6-3.9,4.8-5.5,8.1-5.5h11.3c4.5,0,8.4,3.9,8.4,8.4v186.3c0,4.5-3.9,8.4-8.4,8.4h-11.6c-4.5,0-8.4-3.9-8.4-8.4V328.5
						c0-7.4,1.3-18.7,2.6-25.5c-1.6,5.2-5.2,17.4-8.7,25.1L793.6,381.4z"/>
				</g>
			</g>
			<g>
				<g>
					<path class="st6" d="M1004.3,392.7c0,28.7-22.9,51.9-51.9,51.9h-13.2c-28.7,0-51.9-23.2-51.9-51.9v-99.3
						c0-28.7,23.5-51.9,51.9-51.9h13.2c29,0,51.9,23.2,51.9,51.9V392.7z M946.6,216.4l-10,9c-4.2,3.9-6.4,4.8-10.6,4.8h-8.4
						c-4.2,0-7.7-2.6-4.2-7.7l12.6-17.4c3.9-5.2,7.1-7.1,11.3-7.1h19c4.2,0,7.1,1.3,11.3,7.1l12.6,17.4c3.5,5.2,0,7.7-4.2,7.7h-8.4
						c-4.2,0-6.1-1.3-10.3-4.8L946.6,216.4z M952.4,418.8c13.2,0,23.8-11,23.8-25.1V292.4c0-14.2-10.6-25.1-23.8-25.1h-13.5
						c-12.9,0-23.5,11-23.5,25.1v101.2c0,14.2,10.6,25.1,23.5,25.1H952.4z"/>
				</g>
			</g>
			<g>
				<g>
					<path class="st6" d="M1073.9,328.2c-4.5-10-7.4-20.3-8.4-24.5c0.6,4.8,2.3,14.5,2.3,24.8v107.6c0,4.5-3.9,8.4-8.4,8.4h-11.3
						c-4.5,0-8.4-3.9-8.4-8.4V249.9c0-4.5,3.9-8.4,8.4-8.4h12.9c3.2,0,6.1,1.6,8.1,5.5l54.1,120.2c3.5,7.7,6.4,18,7.7,22.2
						c-0.6-3.5-2.3-14.5-2.3-22.2V249.9c0-4.5,3.9-8.4,8.4-8.4h11.3c4.5,0,8.4,3.9,8.4,8.4v186.3c0,4.5-3.9,8.4-8.4,8.4h-15.1
						c-3.2,0-7.4-1.3-8.7-4.2L1073.9,328.2z"/>
				</g>
			</g>
			<g>
				<g>
					<path class="st6" d="M1209.3,269.5c4.8-16.8,21.6-28,40-28c18.4,0,35.5,11.3,40.3,28l15.8,55.1c1.6,5.8,2.6,18.4,2.6,23.8v87.7
						c0,4.5-3.9,8.4-8.4,8.4h-11.3c-4.5,0-8.4-3.9-8.4-8.4v-58h-61.2v58c0,4.5-3.9,8.4-8.4,8.4h-11.3c-4.5,0-8.4-3.9-8.4-8.4v-87.7
						c0-5.2,0.6-16.8,2.6-23.8L1209.3,269.5z M1218.6,352.4h61.2v-2.6c0-3.5-1-15.5-2.3-19.7l-13.9-49c-2.3-7.4-6.8-13.9-14.5-13.9
						c-7.7,0-12.2,5.5-14.5,13.9l-13.9,48.7c-1.9,6.8-2.3,15.5-2.3,20V352.4z"/>
				</g>
			</g>
			<g>
				<g>
					<path class="st6" d="M1341.7,436.2V249.9c0-4.5,3.9-8.4,8.4-8.4h56.7c29,0,51.9,23.2,51.9,51.9v99.3
						c0,28.7-22.9,51.9-51.9,51.9h-56.7C1345.6,444.5,1341.7,440.7,1341.7,436.2z M1369.7,418.8h37.1c13.2,0,23.8-11,23.8-25.1
						V292.4c0-14.2-10.6-25.1-23.8-25.1h-37.1V418.8z"/>
				</g>
			</g>
			<g>
				<g>
					<path class="st6" d="M1511.2,269.5c4.8-16.8,21.6-28,40-28c18.4,0,35.4,11.3,40.3,28l15.8,55.1c1.6,5.8,2.6,18.4,2.6,23.8v87.7
						c0,4.5-3.9,8.4-8.4,8.4h-11.3c-4.5,0-8.4-3.9-8.4-8.4v-58h-61.2v58c0,4.5-3.9,8.4-8.4,8.4h-11.3c-4.5,0-8.4-3.9-8.4-8.4v-87.7
						c0-5.2,0.6-16.8,2.6-23.8L1511.2,269.5z M1520.5,352.4h61.2v-2.6c0-3.5-1-15.5-2.3-19.7l-13.9-49c-2.3-7.4-6.8-13.9-14.5-13.9
						c-7.7,0-12.2,5.5-14.5,13.9l-13.9,48.7c-1.9,6.8-2.3,15.5-2.3,20V352.4z"/>
				</g>
			</g>
		</g>
	</g>
	<g>
		<g>
			<path class="st2" d="M479.7,539H191.8c-46.5,0-84.6-38-84.6-84.6V182.6c0-46.5,38-84.6,84.6-84.6h287.9c46.5,0,84.6,38,84.6,84.6
				v271.9C564.3,501,526.2,539,479.7,539z"/>
			<g>
				<g>
					<g>
						<g>
							<path class="st8" d="M375.4,374h-92.7c-13.3,0-24-10.7-24-24V155.3c0-13.3,10.7-24,24-24h92.7c13.3,0,24,10.7,24,24V350
								C399.4,363.3,388.6,374,375.4,374z"/>
							<path class="st4" d="M375.4,374h-92.7c-13.3,0-24-10.7-24-24V155.3c0-13.3,10.7-24,24-24h92.7c13.3,0,24,10.7,24,24V350
								C399.4,363.3,388.6,374,375.4,374z"/>
						</g>
					</g>
				</g>
				<path class="st9" d="M462.7,374h-71.1c-9.1,0-16.4-7.3-16.4-16.4V215.1c0-12.2,12.9-20.2,23.8-14.6l71.1,35.9
					c5.5,2.8,9,8.5,9,14.6v106.6C479.1,366.7,471.8,374,462.7,374z"/>
				<g>
					<g>
						<g>
							<path class="st10" d="M273.9,374h-63.1c-11,0-20-9-20-20V250.8c0-11,9-20,20-20h63.1c11,0,20,9,20,20V354
								C293.9,365,285,374,273.9,374z"/>
							<path class="st4" d="M273.9,374h-63.1c-11,0-20-9-20-20V250.8c0-11,9-20,20-20h63.1c11,0,20,9,20,20V354
								C293.9,365,285,374,273.9,374z"/>
						</g>
					</g>
				</g>
				<g>
					<path class="st11" d="M197.8,374h-32.9c-10,0-18.2-8.1-18.2-18.2v-61.5c0-10,8.1-18.2,18.2-18.2h32.9c10,0,18.2,8.1,18.2,18.2
						v61.5C216,365.9,207.8,374,197.8,374z"/>
				</g>
				<path class="st12" d="M509.2,374h-37.8c-8.7,0-15.7-7-15.7-15.7v-66.4c0-8.7,7-15.7,15.7-15.7h37.8c8.7,0,15.7,7,15.7,15.7v66.4
					C524.9,367,517.8,374,509.2,374z"/>
			</g>
		</g>
		<g>
			<linearGradient id="SVGID_1_" gradientUnits="userSpaceOnUse" x1="115.5034" y1="475.7771" x2="556.0691" y2="475.7771">
				<stop  offset="0" style="stop-color:#A59FEA"/>
				<stop  offset="0.1482" style="stop-color:#A398E9"/>
				<stop  offset="0.3577" style="stop-color:#9E86E8"/>
				<stop  offset="0.6037" style="stop-color:#9568E5"/>
				<stop  offset="0.8752" style="stop-color:#883EE2"/>
				<stop  offset="1" style="stop-color:#8228E0"/>
			</linearGradient>
			<path class="st7" d="M490.5,544.5H181c-36,0-65.5-29.5-65.5-65.5v-6.4c0-36,29.5-65.5,65.5-65.5h309.5c36,0,65.5,29.5,65.5,65.5
				v6.4C556.1,515,526.6,544.5,490.5,544.5z"/>
			<ellipse class="st6" cx="487.9" cy="476.6" rx="64.9" ry="62.3"/>
		</g>
	</g>
</g>
<g id="simbolo_x5F_c" class="st0">
</g>
<g id="botao_x5F_c" class="st0">
</g>
<g id="tipografia_x5F_c" class="st0">
</g>
<g id="marca_x5F_grey" class="st0">
</g>
<g id="simbolo_x5F_grey" class="st0">
</g>
<g id="botao_x5F_grey" class="st0">
</g>
<g id="tipografia_x5F_grey" class="st0">
</g>
<g id="protecao" class="st0">
</g>
</svg>
