<svg xmlns="http://www.w3.org/2000/svg" xmlns:xlink="http://www.w3.org/1999/xlink"
viewBox="176 79 448.5 641.5404052734375" height="641.5404052734375" width="448.5">
	<defs>
		<style>
			.cls-1{
				fill:#8228e0;
			}
			.cls-2{
				fill:#efefef;
			}
			.cls-3{
				stroke:#fff;
				stroke-miterlimit:10;
				stroke-width:10.71px;
				fill:url(#linear-gradient);
			}
			.cls-4{
				fill:#cd004b;
			}
			.cls-5{
				fill:#fff;
			}
			.cls-6{
				fill:#f3711b;
			}
			.cls-7{
				fill:#fcb808;
			}
			.cls-8{
				fill:#008ad1;
			}
			.cls-9{
				fill:#04b34a;
			}
		</style>
		<linearGradient id="linear-gradient" x1="178.23" y1="473.77" x2="618.8" y2="473.77" gradientUnits="userSpaceOnUse">
			<stop offset="0" stop-color="#a59fea"/>
			<stop offset="0.15" stop-color="#a398e9"/>
			<stop offset="0.36" stop-color="#9e86e8"/>
			<stop offset="0.6" stop-color="#9568e5"/>
			<stop offset="0.88" stop-color="#883ee2"/>
			<stop offset="1" stop-color="#8228e0"/>
		</linearGradient>
	</defs>
	<title>MARCA_svg</title>
	<path class="cls-1" d="M219.2,689.18a4.17,4.17,0,0,1-4.16,2.4H208.8a4,4,0,0,1-4-2.4L193,662.78c-1.44-3-3.36-10.08-4.16-13.12a127.43,127.43,0,0,1,1.12,13.28v53.44a4.24,4.24,0,0,1-4.16,4.16H180a4.21,4.21,0,0,1-4-4.16V623.89a4.21,4.21,0,0,1,4-4.16h5.92a4.2,4.2,0,0,1,4,2.72l19.2,42.73a56.5,56.5,0,0,1,3,8.8,56.5,56.5,0,0,1,3-8.8l19.21-42.73a4.2,4.2,0,0,1,4-2.72H244a4.24,4.24,0,0,1,4.16,4.16v92.49a4.24,4.24,0,0,1-4.16,4.16h-5.76a4.24,4.24,0,0,1-4.16-4.16V662.94a80.53,80.53,0,0,1,1.28-12.64,118.22,118.22,0,0,1-4.32,12.48Z"/>
	<path class="cls-1" d="M323.85,694.78a25.64,25.64,0,0,1-25.76,25.76h-6.56a25.75,25.75,0,0,1-25.77-25.76V645.49a25.85,25.85,0,0,1,25.77-25.76h6.56a25.64,25.64,0,0,1,25.76,25.76Zm-28.64-87.53-5,4.48c-2.08,1.92-3.2,2.4-5.29,2.4H280.8c-2.08,0-3.84-1.28-2.08-3.84l6.24-8.64c1.93-2.56,3.53-3.52,5.61-3.52H300c2.08,0,3.52.64,5.6,3.52l6.24,8.64c1.76,2.56,0,3.84-2.08,3.84h-4.16c-2.08,0-3-.64-5.12-2.4Zm2.88,100.49c6.56,0,11.84-5.44,11.84-12.48V645c0-7-5.28-12.48-11.84-12.48h-6.72c-6.41,0-11.69,5.44-11.69,12.48v50.25c0,7,5.28,12.48,11.69,12.48Z"/>
	<path class="cls-1" d="M358.41,662.78a72.21,72.21,0,0,1-4.16-12.17,88.36,88.36,0,0,1,1.12,12.33v53.44a4.24,4.24,0,0,1-4.16,4.16h-5.6a4.24,4.24,0,0,1-4.16-4.16V623.89a4.24,4.24,0,0,1,4.16-4.16H352a4.35,4.35,0,0,1,4,2.72l26.88,59.69a93.43,93.43,0,0,1,3.84,11,76.32,76.32,0,0,1-1.12-11V623.89a4.24,4.24,0,0,1,4.16-4.16h5.6a4.24,4.24,0,0,1,4.16,4.16v92.49a4.24,4.24,0,0,1-4.16,4.16h-7.52c-1.6,0-3.68-.64-4.32-2.08Z"/>
	<path class="cls-1" d="M425.61,633.65c2.4-8.32,10.72-13.92,19.84-13.92s17.6,5.6,20,13.92L473.29,661a60.88,60.88,0,0,1,1.28,11.84v43.52a4.24,4.24,0,0,1-4.16,4.16h-5.6a4.24,4.24,0,0,1-4.16-4.16v-28.8h-30.4v28.8a4.24,4.24,0,0,1-4.16,4.16h-5.6a4.24,4.24,0,0,1-4.16-4.16V672.86A55.45,55.45,0,0,1,417.61,661Zm4.64,41.13h30.4V673.5a53.74,53.74,0,0,0-1.12-9.76l-6.88-24.33c-1.12-3.68-3.36-6.88-7.2-6.88s-6.08,2.72-7.2,6.88l-6.88,24.17a39.93,39.93,0,0,0-1.12,9.92Z"/>
	<path class="cls-1" d="M491.37,716.38V623.89a4.24,4.24,0,0,1,4.16-4.16h28.16a25.64,25.64,0,0,1,25.77,25.76v49.29a25.64,25.64,0,0,1-25.77,25.76H495.53A4.24,4.24,0,0,1,491.37,716.38Zm13.92-8.64h18.4c6.56,0,11.85-5.44,11.85-12.48V645c0-7-5.29-12.48-11.85-12.48h-18.4Z"/>
	<path class="cls-1" d="M575.53,633.65c2.4-8.32,10.73-13.92,19.85-13.92s17.6,5.6,20,13.92L623.22,661a60.88,60.88,0,0,1,1.28,11.84v43.52a4.24,4.24,0,0,1-4.16,4.16h-5.6a4.24,4.24,0,0,1-4.16-4.16v-28.8H580.17v28.8a4.24,4.24,0,0,1-4.16,4.16h-5.6a4.24,4.24,0,0,1-4.16-4.16V672.86A55.45,55.45,0,0,1,567.53,661Zm4.64,41.13h30.41V673.5a53.74,53.74,0,0,0-1.12-9.76l-6.88-24.33c-1.12-3.68-3.36-6.88-7.2-6.88s-6.08,2.72-7.2,6.88l-6.89,24.17a39.93,39.93,0,0,0-1.12,9.92Z"/>
	<rect class="cls-2" x="178.7" y="79" width="440.57" height="464" rx="79.92" ry="79.92"/>
	<rect class="cls-3" x="178.23" y="405.02" width="440.57" height="137.51" rx="65.54" ry="65.54"/>
	<ellipse class="cls-1" cx="550.66" cy="474.57" rx="64.86" ry="62.34"/>
	<polygon class="cls-4" points="441.32 153.5 441.32 129.63 422.83 129.63 422.83 112.28 382.78 112.28 382.78 129.63 364.29 129.63 364.29 153.5 339.64 153.5 339.64 370.68 465.97 370.68 465.97 153.5 441.32 153.5"/>
	<polyline class="cls-5" points="338.24 370.68 382.02 370.68 382.02 228.8 361.3 228.8 361.3 214.49 338.93 214.49"/>
	<polygon class="cls-6" points="351.36 236.02 351.36 221.22 286.58 221.22 286.58 236.02 265.85 236.02 265.85 370.68 372.09 370.68 372.09 236.02 351.36 236.02"/>
	<rect class="cls-5" x="265.52" y="262.04" width="34.24" height="108.64"/>
	<rect class="cls-7" x="226.89" y="268.68" width="62.22" height="102"/>
	<polyline class="cls-5" points="462.68 370.68 426.65 370.68 426.65 164.11 466.68 188.21"/>
	<polygon class="cls-8" points="529.92 370.68 436.59 370.68 436.59 177.36 529.92 231.97 529.92 370.68"/>
	<rect class="cls-5" x="494.95" y="262.75" width="35.26" height="107.86"/>
	<rect class="cls-9" x="504.88" y="268.68" width="62.22" height="102"/>
</svg>