<svg id="simbolo" xmlns="http://www.w3.org/2000/svg" xmlns:xlink="http://www.w3.org/1999/xlink" viewBox="163.29002380371094 86 457 441" width="457" height="441">
	<defs>
		<style>
			.cls-1{fill:#efefef;}
			.cls-2{fill:#8228e0;}
			.cls-3{fill:none;}
			.cls-3, .cls-4, .cls-6, .cls-7{stroke:#efefef;stroke-width:11px;}
			.cls-3, .cls-4, .cls-6, .cls-7, .cls-9{stroke-miterlimit:10;}
			.cls-4{fill:#8228e0;}
			.cls-5{fill:#8228e0;}
			.cls-6{fill:#8228e0;}
			.cls-7{fill:#8228e0;}
			.cls-8{fill:#8228e0;}
			.cls-9{stroke:#fff;stroke-width:10.71px;fill:url(#linear-gradient);}
		</style>
		<linearGradient id="linear-gradient" x1="171.5" y1="463.77" x2="612.07" y2="463.77" gradientUnits="userSpaceOnUse">
			<stop offset="0" stop-color="#a59fea"/>
			<stop offset="0.15" stop-color="#a398e9"/>
			<stop offset="0.36" stop-color="#9e86e8"/>
			<stop offset="0.6" stop-color="#9568e5"/>
			<stop offset="0.88" stop-color="#883ee2"/>
			<stop offset="1" stop-color="#8228e0"/>
		</linearGradient>
	</defs>
	<rect class="cls-1" x="163.29" y="86" width="457" height="441" rx="84.55" ry="84.55"/>
	<rect class="cls-2" x="314.7" y="119.28" width="140.68" height="242.72" rx="24" ry="24"/>
	<rect class="cls-3" x="314.7" y="119.28" width="140.68" height="242.72" rx="24" ry="24"/>
	<path class="cls-4" d="M518.73,362H447.65a16.41,16.41,0,0,1-16.41-16.41V203.14A16.41,16.41,0,0,1,455,188.5l71.08,35.85a16.41,16.41,0,0,1,9,14.65v106.6A16.41,16.41,0,0,1,518.73,362Z"/>
	<rect class="cls-5" x="246.8" y="218.84" width="103.12" height="143.16" rx="20" ry="20"/>
	<rect class="cls-3" x="246.8" y="218.84" width="103.12" height="143.16" rx="20" ry="20"/>
	<rect class="cls-6" x="202.7" y="264.12" width="69.26" height="97.88" rx="18.19" ry="18.19"/>
	<rect class="cls-7" x="511.62" y="264.12" width="69.26" height="97.88" rx="15.72" ry="15.72"/>
	<rect class="cls-9" x="171.5" y="395.02" width="440.57" height="137.51" rx="65.54" ry="65.54"/>
	<ellipse class="cls-8" cx="543.93" cy="464.57" rx="64.86" ry="62.34"/>
</svg>