<svg width="427" height="557" viewBox="0 0 427 557" fill="none" xmlns="http://www.w3.org/2000/svg">
<path d="M82.5368 548.347H238.192" stroke="white" stroke-width="17.133" stroke-miterlimit="10" stroke-linecap="round"/>
<path fill-rule="evenodd" clip-rule="evenodd" d="M358.173 426.925H347.651C315.442 426.925 289.136 400.613 289.136 368.396V320.906C289.136 288.689 315.442 262.377 347.651 262.377H358.173C390.382 262.377 416.688 288.689 416.688 320.906V368.396C416.688 400.613 390.382 426.925 358.173 426.925Z" stroke="#E6E6E6" stroke-width="20.5596" stroke-miterlimit="10" stroke-linecap="round"/>
<path d="M183.142 516.259H139.127C62.6468 516.259 0.153809 453.751 0.153809 377.253V230.803C0.153809 216.427 11.8311 204.875 26.0749 204.875H297.862C312.234 204.875 323.783 216.556 323.783 230.803V375.456C323.911 452.852 260.648 516.259 183.142 516.259Z" fill="white"/>
<path d="M297.349 204.875H269.374V434.241C269.374 470.693 245.763 501.113 213.939 509.199C274.636 497.776 321.217 440.787 321.217 372.761V230.418C321.217 216.299 310.566 204.875 297.349 204.875Z" fill="#E6E6E6"/>
<path d="M192.894 391.628H122.188C110.768 391.628 101.4 382.259 101.4 370.835V304.092C101.4 292.669 110.768 283.299 122.188 283.299H192.894C204.315 283.299 213.682 292.669 213.682 304.092V370.835C213.554 382.259 204.315 391.628 192.894 391.628Z" fill="#EEEEEE"/>
<path d="M167.23 351.197H144.517C141.308 351.197 138.614 348.502 138.614 345.293V297.418C138.614 294.209 141.308 291.513 144.517 291.513H167.23C170.438 291.513 173.132 294.209 173.132 297.418V345.293C173.132 348.502 170.438 351.197 167.23 351.197Z" fill="#EF1466"/>
<path d="M167.23 351.197H144.517C141.308 351.197 138.614 348.502 138.614 345.293V297.418C138.614 294.209 141.308 291.513 144.517 291.513H167.23C170.438 291.513 173.132 294.209 173.132 297.418V345.293C173.132 348.502 170.438 351.197 167.23 351.197Z" stroke="#EEEEEE" stroke-width="2.1044" stroke-miterlimit="10"/>
<path d="M188.659 351.197H171.208C169.026 351.197 167.23 349.401 167.23 347.219V312.178C167.23 309.226 170.438 307.173 173.132 308.584L190.584 317.441C191.996 318.083 192.766 319.494 192.766 321.035V347.219C192.766 349.272 190.841 351.197 188.659 351.197Z" fill="#008AD4" stroke="#EEEEEE" stroke-width="2.1044" stroke-miterlimit="10"/>
<path d="M142.335 351.197H126.808C124.113 351.197 121.932 349.015 121.932 346.32V321.034C121.932 318.339 124.113 316.157 126.808 316.157H142.335C145.03 316.157 147.211 318.339 147.211 321.034V346.191C147.211 348.887 145.03 351.197 142.335 351.197Z" fill="#FF7201"/>
<path d="M142.335 351.197H126.808C124.113 351.197 121.932 349.015 121.932 346.32V321.034C121.932 318.339 124.113 316.157 126.808 316.157H142.335C145.03 316.157 147.211 318.339 147.211 321.034V346.191C147.211 348.887 145.03 351.197 142.335 351.197Z" stroke="#EEEEEE" stroke-width="2.1044" stroke-miterlimit="10"/>
<path d="M123.6 351.197H115.516C113.078 351.197 111.024 349.144 111.024 346.705V331.559C111.024 329.121 113.078 327.067 115.516 327.067H123.6C126.038 327.067 128.091 329.121 128.091 331.559V346.705C128.091 349.144 126.038 351.197 123.6 351.197Z" fill="#FFB800" stroke="#EEEEEE" stroke-width="2.1044" stroke-miterlimit="10"/>
<path d="M200.08 351.197H190.841C188.659 351.197 186.991 349.529 186.991 347.347V331.046C186.991 328.864 188.659 327.195 190.841 327.195H200.08C202.262 327.195 203.93 328.864 203.93 331.046V347.347C203.93 349.4 202.262 351.197 200.08 351.197Z" fill="#00B33E" stroke="#EEEEEE" stroke-width="2.1044" stroke-miterlimit="10"/>
<path d="M113.078 424.358C112.821 424.743 112.564 425 112.051 425H110.511C109.998 425 109.741 424.743 109.485 424.358L106.533 417.812C106.148 417.042 105.763 415.374 105.507 414.604C105.635 415.245 105.763 417.299 105.763 417.812V430.904C105.763 431.418 105.25 431.931 104.737 431.931H103.325C102.812 431.931 102.298 431.418 102.298 430.904V408.186C102.298 407.673 102.812 407.159 103.325 407.159H104.737C105.122 407.159 105.507 407.416 105.763 407.801L110.511 418.326C110.768 418.839 111.153 419.738 111.281 420.508C111.409 419.866 111.794 418.839 112.051 418.326L116.799 407.801C117.056 407.288 117.441 407.159 117.825 407.159H119.237C119.75 407.159 120.264 407.673 120.264 408.186V430.904C120.264 431.418 119.75 431.931 119.237 431.931H117.697C117.184 431.931 116.671 431.418 116.671 430.904V417.812C116.671 416.914 116.799 415.502 116.927 414.732C116.671 415.374 116.286 416.914 115.901 417.812L113.078 424.358Z" fill="#9623E4"/>
<path d="M138.742 425.77C138.742 429.236 135.919 432.059 132.454 432.059H130.786C127.321 432.059 124.498 429.236 124.498 425.77V413.705C124.498 410.239 127.321 407.416 130.786 407.416H132.454C136.047 407.416 138.742 410.239 138.742 413.705V425.77ZM131.684 404.207L130.529 405.362C130.016 405.875 129.759 406.004 129.246 406.004H128.22C127.706 406.004 127.321 405.747 127.706 405.105L129.246 402.923C129.759 402.282 130.144 402.025 130.658 402.025H132.968C133.481 402.025 133.866 402.153 134.379 402.923L135.919 405.105C136.304 405.747 135.919 406.004 135.406 406.004H134.379C133.866 406.004 133.609 405.875 133.096 405.362L131.684 404.207ZM132.454 428.851C134.122 428.851 135.406 427.567 135.406 425.77V413.448C135.406 411.78 134.122 410.368 132.454 410.368H130.786C129.246 410.368 127.963 411.651 127.963 413.448V425.77C127.963 427.439 129.246 428.851 130.786 428.851H132.454Z" fill="#9623E4"/>
<path d="M147.211 417.812C146.698 416.657 146.313 415.374 146.185 414.86C146.313 415.502 146.441 416.657 146.441 417.941V431.033C146.441 431.546 145.928 432.059 145.415 432.059H144.003C143.49 432.059 142.977 431.546 142.977 431.033V408.314C142.977 407.801 143.49 407.287 144.003 407.287H145.543C145.928 407.287 146.313 407.544 146.57 407.929L153.114 422.561C153.499 423.46 153.884 424.743 154.012 425.257C153.884 424.872 153.756 423.46 153.756 422.561V408.314C153.756 407.801 154.269 407.287 154.782 407.287H156.194C156.707 407.287 157.22 407.801 157.22 408.314V431.033C157.22 431.546 156.707 432.059 156.194 432.059H154.397C154.012 432.059 153.499 431.931 153.371 431.546L147.211 417.812Z" fill="#9623E4"/>
<path d="M163.765 410.753C164.407 408.699 166.46 407.287 168.641 407.287C170.823 407.287 173.004 408.699 173.517 410.753L175.442 417.427C175.699 418.197 175.699 419.609 175.699 420.379V431.033C175.699 431.546 175.186 432.059 174.672 432.059H173.261C172.748 432.059 172.234 431.546 172.234 431.033V423.973H164.791V431.033C164.791 431.546 164.278 432.059 163.765 432.059H162.353C161.84 432.059 161.327 431.546 161.327 431.033V420.379C161.327 419.738 161.455 418.326 161.583 417.427L163.765 410.753ZM164.92 420.764H172.363V420.508C172.363 420.123 172.234 418.582 172.106 418.069L170.438 412.036C170.181 411.138 169.668 410.368 168.641 410.368C167.743 410.368 167.101 411.01 166.845 412.036L165.176 418.069C164.92 418.839 164.92 419.994 164.92 420.508V420.764Z" fill="#9623E4"/>
<path d="M179.934 431.033V408.314C179.934 407.801 180.447 407.287 180.96 407.287H187.89C191.483 407.287 194.177 410.111 194.177 413.577V425.642C194.177 429.107 191.354 431.931 187.89 431.931H180.96C180.319 432.059 179.934 431.546 179.934 431.033ZM183.27 428.851H187.761C189.429 428.851 190.713 427.567 190.713 425.77V413.448C190.713 411.78 189.429 410.368 187.761 410.368H183.27V428.851Z" fill="#9623E4"/>
<path d="M200.593 410.753C201.235 408.699 203.288 407.287 205.47 407.287C207.651 407.287 209.833 408.699 210.346 410.753L212.271 417.427C212.527 418.197 212.527 419.609 212.527 420.379V431.033C212.527 431.546 212.014 432.059 211.501 432.059H210.089C209.576 432.059 209.063 431.546 209.063 431.033V423.973H201.62V431.033C201.62 431.546 201.107 432.059 200.593 432.059H199.182C198.669 432.059 198.155 431.546 198.155 431.033V420.379C198.155 419.738 198.284 418.326 198.412 417.427L200.593 410.753ZM201.62 420.764H209.063V420.508C209.063 420.123 208.934 418.582 208.806 418.069L207.138 412.036C206.881 411.138 206.368 410.368 205.341 410.368C204.443 410.368 203.802 411.01 203.545 412.036L201.877 417.941C201.62 418.711 201.62 419.866 201.62 420.379V420.764Z" fill="#9623E4"/>
<path d="M195.461 393.04H119.494C110.639 393.04 103.453 385.852 103.453 376.996V375.456C103.453 366.599 110.639 359.412 119.494 359.412H195.461C204.315 359.412 211.501 366.599 211.501 375.456V376.996C211.629 385.724 204.315 393.04 195.461 393.04Z" fill="url(#paint0_linear)" stroke="white" stroke-width="2.048" stroke-miterlimit="10"/>
<path d="M194.819 391.628C203.607 391.628 210.731 384.79 210.731 376.354C210.731 367.919 203.607 361.08 194.819 361.08C186.031 361.08 178.907 367.919 178.907 376.354C178.907 384.79 186.031 391.628 194.819 391.628Z" fill="#9623E4"/>
<path d="M119.494 177.151C149.393 154.818 145.928 131.714 143.233 122.73C136.176 99.498 114.617 103.477 98.3205 77.9348C94.7274 72.2873 84.8466 61.634 93.9575 36.3486C99.732 20.1761 112.308 10.293 118.595 6.05737" stroke="#E6E6E6" stroke-width="10.2798" stroke-miterlimit="10" stroke-linecap="round"/>
<path d="M210.859 177.151C235.625 160.979 232.802 144.293 230.493 137.875C224.718 121.19 206.753 123.885 193.407 105.531C190.456 101.552 182.243 93.7222 189.814 75.4961C194.691 63.6877 204.956 56.6283 210.218 53.5479" stroke="#E6E6E6" stroke-width="10.2798" stroke-miterlimit="10" stroke-linecap="round"/>
<defs>
<linearGradient id="paint0_linear" x1="103.433" y1="376.124" x2="211.589" y2="376.124" gradientUnits="userSpaceOnUse">
<stop stop-color="#A89FEC"/>
<stop offset="0.1443" stop-color="#A798EC"/>
<stop offset="0.3482" stop-color="#A486EA"/>
<stop offset="0.5875" stop-color="#A068E8"/>
<stop offset="0.8518" stop-color="#9A3EE6"/>
<stop offset="1" stop-color="#9623E4"/>
</linearGradient>
</defs>
</svg>
