<svg width="73" height="74" viewBox="0 0 73 74" fill="none" xmlns="http://www.w3.org/2000/svg">
<path d="M36.4 72.1C16.8 72.1 0.899994 56.2 0.899994 36.6C0.899994 16.9 16.8 1 36.4 1C56 1 72 16.9 72 36.5C72 56.2 56 72.1 36.4 72.1Z" fill="#EEEEEE"/>
<path d="M31 58.0001H39.7V36.4001H45.7L46.3 29.1001H39.6C39.6 29.1001 39.6 26.4001 39.6 25.0001C39.6 23.3001 39.9 22.6001 41.6 22.6001C42.9 22.6001 46.3 22.6001 46.3 22.6001V15.1001C46.3 15.1001 41.4 15.1001 40.3 15.1001C33.9 15.1001 31 17.9001 31 23.4001C31 28.1001 31 29.2001 31 29.2001H26.5V36.5001H31V58.0001Z" fill="#9623E4"/>
</svg>
