<?xml version="1.0" encoding="utf-8"?>
<!-- Generator: Adobe Illustrator 21.0.0, SVG Export Plug-In . SVG Version: 6.00 Build 0)  -->
<svg version="1.1" xmlns="http://www.w3.org/2000/svg" xmlns:xlink="http://www.w3.org/1999/xlink"
	viewBox="54.5 29 707.5 738.5" width="707.5" height="738.5">
<style type="text/css">
	.st0{fill:#FFFFFF;stroke:#9623E4;stroke-width:5;stroke-miterlimit:10;}
	.st1{clip-path:url(#SVGID_2_);}
	.st2{fill:#EEEEEE;}
	.st3{fill:#9623E4;}
	.st4{fill:#462B91;}
	.st5{fill:#96379C;}
	.st6{fill:#D12A90;}
	.st7{fill:#E7047F;}
	.st8{fill:#F91525;}
	.st9{fill:#FF2923;}
	.st10{fill:#FE5805;}
	.st11{fill:#FFB714;}
	.st12{fill:#FDFD08;}
	.st13{fill:#5AA815;}
	.st14{fill:#B3B3B3;}
	.st15{fill:none;stroke:#EEEEEE;stroke-width:4.1217;stroke-miterlimit:10;}
	.st16{fill:none;stroke:#B3B3B3;stroke-width:2.7768;stroke-linecap:round;stroke-miterlimit:10;}
	.st17{fill:#FFB800;}
	.st18{fill:#FF7201;}
	.st19{fill:#EF1466;}
	.st20{fill:#008AD4;}
	.st21{fill:#00B33E;}
	.st22{fill:none;stroke:#EEEEEE;stroke-width:3.0237;stroke-miterlimit:10;}
	.st23{fill:#008AD4;stroke:#EEEEEE;stroke-width:3.0237;stroke-miterlimit:10;}
	.st24{fill:#FFB800;stroke:#EEEEEE;stroke-width:3.0237;stroke-miterlimit:10;}
	.st25{fill:#00B33E;stroke:#EEEEEE;stroke-width:3.0237;stroke-miterlimit:10;}
	.st26{fill:url(#SVGID_3_);stroke:#FFFFFF;stroke-width:2.9426;stroke-miterlimit:10;}
</style>
<g>
<g id="Camada_3">
	<circle class="st0" cx="478.5" cy="432.5" r="281.5"/>
	<ellipse class="st0" cx="259" cy="221.8" rx="202.5" ry="189.8"/>
</g>
<g id="Camada_2">
	<g>
		<defs>
			<circle id="SVGID_1_" cx="448.5" cy="432.5" r="281.5"/>
		</defs>
		<clipPath id="SVGID_2_">
			<use xlink:href="#SVGID_1_"  style="overflow:visible;"/>
		</clipPath>
		<g class="st1">
			<g>
				<path class="st2" d="M507.2,468.2c1.1,3.6-0.9,7.4-4.5,8.5l-55.2,16.9c-3.6,1.1-7.4-0.9-8.5-4.5l0,0c-1.1-3.6,0.9-7.4,4.5-8.5
					l55.2-16.9C502.3,462.6,506.1,464.6,507.2,468.2L507.2,468.2z"/>
				<path class="st2" d="M500,434.7c-0.5,3.7-4,6.3-7.7,5.8l-57.2-8.2c-3.7-0.5-6.3-4-5.8-7.7l0,0c0.5-3.7,4-6.3,7.7-5.8l57.2,8.2
					C497.9,427.6,500.5,431,500,434.7L500,434.7z"/>
				<path class="st2" d="M507.7,401.3c-2.1,3.1-6.3,4-9.4,1.9l-48.2-31.8c-3.1-2.1-4-6.3-1.9-9.4l0,0c2.1-3.1,6.3-4,9.4-1.9
					l48.2,31.8C508.9,394,509.8,398.2,507.7,401.3L507.7,401.3z"/>
				<path class="st2" d="M528.9,374.4c-3.2,2-7.4,0.9-9.4-2.3l-30-49.3c-2-3.2-0.9-7.4,2.3-9.4l0,0c3.2-2,7.4-0.9,9.4,2.3l30,49.3
					C533.2,368.3,532.1,372.4,528.9,374.4L528.9,374.4z"/>
				<path class="st2" d="M559.6,359.1c-3.7,0.4-7.1-2.3-7.5-6l-6.1-57.4c-0.4-3.7,2.3-7.1,6-7.5l0,0c3.7-0.4,7.1,2.3,7.5,6l6.1,57.4
					C566.1,355.3,563.4,358.7,559.6,359.1L559.6,359.1z"/>
				<path class="st2" d="M593.9,358.3c-3.6-1.2-5.4-5.1-4.2-8.7l18.9-54.6c1.2-3.6,5.1-5.4,8.7-4.2l0,0c3.6,1.2,5.4,5.1,4.2,8.7
					l-18.9,54.6C601.3,357.7,597.4,359.6,593.9,358.3L593.9,358.3z"/>
				<path class="st2" d="M625.2,372.3c-2.7-2.6-2.7-6.9-0.1-9.6l40.4-41.3c2.6-2.7,6.9-2.7,9.6-0.1l0,0c2.7,2.6,2.7,6.9,0.1,9.6
					l-40.4,41.3C632.2,374.8,627.9,374.9,625.2,372.3L625.2,372.3z"/>
				<path class="st2" d="M647.6,398.2c-1.3-3.5,0.5-7.4,4-8.8l54.1-20.2c3.5-1.3,7.4,0.5,8.8,4l0,0c1.3,3.5-0.5,7.4-4,8.8
					l-54.1,20.2C652.9,403.5,649,401.7,647.6,398.2L647.6,398.2z"/>
				<path class="st2" d="M656.9,431.2c0.3-3.7,3.6-6.5,7.4-6.2l57.6,4.8c3.7,0.3,6.5,3.6,6.2,7.4l0,0c-0.3,3.7-3.6,6.5-7.4,6.2
					l-57.6-4.8C659.3,438.3,656.5,435,656.9,431.2L656.9,431.2z"/>
				<path class="st2" d="M651.1,465c1.9-3.3,6-4.4,9.3-2.5l50,28.9c3.3,1.9,4.4,6,2.5,9.3l0,0c-1.9,3.3-6,4.4-9.3,2.5l-50-28.9
					C650.4,472.4,649.2,468.3,651.1,465L651.1,465z"/>
			</g>
			<g>
				<g>
					<path class="st3" d="M608.8,471.9c1.2,0,2.4-0.4,3.4-1.3c11.9-11,18.7-26.6,18.7-42.8c0-32.2-26.2-58.4-58.4-58.4
						c-32.2,0-58.4,26.2-58.4,58.4c0,16.2,6.5,31.2,18.2,42.4c2,1.9,5.1,1.8,7-0.2c1.9-2,1.8-5.1-0.2-7
						c-9.7-9.2-15.1-21.7-15.1-35.2c0-26.7,21.7-48.5,48.5-48.5c26.7,0,48.5,21.7,48.5,48.5c0,13.4-5.6,26.4-15.5,35.5
						c-2,1.9-2.1,5-0.3,7C606.1,471.3,607.5,471.9,608.8,471.9z"/>
					<path class="st3" d="M544,478.3c0,2.7,2.2,4.9,4.9,4.9h47c2.7,0,4.9-2.2,4.9-4.9l0,0c0-2.7-2.2-4.9-4.9-4.9h-47
						C546.2,473.4,544,475.6,544,478.3L544,478.3z"/>
					<path class="st3" d="M544,490.9c0,2.7,2.2,4.9,4.9,4.9h47c2.7,0,4.9-2.2,4.9-4.9l0,0c0-2.7-2.2-4.9-4.9-4.9h-47
						C546.2,486,544,488.2,544,490.9L544,490.9z"/>
					<path class="st3" d="M544,503.5c0,2.7,2.2,4.9,4.9,4.9h47c2.7,0,4.9-2.2,4.9-4.9l0,0c0-2.7-2.2-4.9-4.9-4.9h-47
						C546.2,498.6,544,500.8,544,503.5L544,503.5z"/>
					<path class="st3" d="M590.3,511.3v2.8c0,7-5.7,12.6-12.6,12.6h-10.3c-7,0-12.6-5.7-12.6-12.6v-2.8H590.3z"/>
				</g>
			</g>
			<g>
				<g>
					<path class="st3" d="M571,519c0,19.3,0,38.5,0,57.8c0,2.9,4.6,2.9,4.6,0c0-19.3,0-38.5,0-57.8C575.5,516,571,516,571,519
						L571,519z"/>
				</g>
			</g>
			<g>
				<path class="st3" d="M573,577.8c-12.2,0-24.3,0-36.3,0"/>
				<g>
					<path class="st3" d="M573,580.1c-12.1,0-24.2,0-36.3,0c-2.9,0-2.9-4.6,0-4.6c12.1,0,24.2,0,36.3,0
						C575.9,575.5,575.9,580.1,573,580.1L573,580.1z"/>
				</g>
			</g>
			<g>
				<path class="st3" d="M536.4,578.5c0,6.6,0,12.9,0,19.5"/>
				<g>
					<path class="st3" d="M538.7,578.5c0,6.5,0,13,0,19.5c0,2.9-4.6,2.9-4.6,0c0-6.5,0-13,0-19.5
						C534.2,575.6,538.7,575.6,538.7,578.5L538.7,578.5z"/>
				</g>
			</g>
			<g>
				<path class="st3" d="M536.4,598.8c-10.9,0-21.8,0-33,0"/>
				<g>
					<path class="st3" d="M536.4,601.1c-11,0-22,0-33,0c-2.9,0-2.9-4.6,0-4.6c11,0,22,0,33,0C539.4,596.6,539.4,601.1,536.4,601.1
						L536.4,601.1z"/>
				</g>
			</g>
			<g>
				<path class="st3" d="M503.2,598.8c0-9.4,0-19,0-28.4"/>
				<g>
					<path class="st3" d="M500.9,598.8c0-9.5,0-18.9,0-28.4c0-2.9,4.6-2.9,4.6,0c0,9.5,0,18.9,0,28.4
						C505.5,601.8,500.9,601.8,500.9,598.8L500.9,598.8z"/>
				</g>
			</g>
			<g>
				<path class="st3" d="M503.2,570.2c-9.1,0-18.3,0-27.4,0"/>
				<g>
					<path class="st3" d="M503.2,572.5c-9.1,0-18.3,0-27.4,0c-2.9,0-2.9-4.6,0-4.6c9.1,0,18.3,0,27.4,0
						C506.2,567.9,506.2,572.5,503.2,572.5L503.2,572.5z"/>
				</g>
			</g>
			<g>
				<g>
					<path class="st3" d="M473,571.7c0,18.4,0,36.9,0,55.3c0,2.9,4.6,2.9,4.6,0c0-18.4,0-36.9,0-55.3
						C477.6,568.8,473,568.8,473,571.7L473,571.7z"/>
				</g>
			</g>
			<g>
				<g>
					<path class="st3" d="M476.3,626.2c-17.4,0-34.8,0-52.2,0c-1.6,0-1.6,4.6,0,4.6c17.4,0,34.8,0,52.2,0
						C477.9,630.8,477.9,626.2,476.3,626.2L476.3,626.2z"/>
				</g>
			</g>
			<g>
				<g>
					<polygon class="st3" points="574.2,473.4 571.4,473.4 571.4,465.9 580.4,465.9 580.4,462.2 569.2,462.2 569.2,452.5 
						583.7,452.5 583.7,442.1 586.4,442.1 586.4,455.2 571.9,455.2 571.9,459.4 583.1,459.4 583.1,468.6 574.2,468.6 					"/>
				</g>
				<g>
					<g>
						<path class="st3" d="M583.7,442.4l0,5.1h2.4l0-4.8c1.4,0.5,3.5,1.1,5.9,1.1c1.1,0,2.2-0.1,3.3-0.4c4.4-1.2,7.1-4.3,7.4-8.4
							l0.1,0.1c0.3-0.1,6.8-2.8,7.2-10.3c0.3-4.8-1.8-8-3.6-9.8c-1.3-1.3-2.6-2.1-3.4-2.5c0.6-3-0.7-7.2-3.3-10.2
							c-1.9-2.3-6.2-5.7-13.4-4.5c-1.2-1.5-4.5-5.1-9.9-5.7c-2.8-0.3-6.8-0.2-10.4,3.3c-2-0.9-7.1-2.7-12.4-0.8
							c-1.4,0.5-5.8,2.5-7.5,8.1c-1,0.3-2.8,1-4.7,2.3c-2.5,1.8-5.5,5.2-5.5,11.2c0,4.3,1.6,7.9,4.6,10.5c3.1,2.6,7,3.7,10.2,3.7
							c0.4,0,0.7,0,1.1,0c0.6,2.2,1.8,3.9,3.7,5.2c4.2,2.8,10.2,2.2,12.5,1.9c0.6,0.8,1.7,2.2,3.6,3.4
							C573.8,442.2,577.8,443.6,583.7,442.4z M569.6,435.4l-0.4-0.8l-0.9,0.2c-0.1,0-7.2,1.5-11.5-1.3c-1.6-1-2.5-2.5-2.9-4.5
							c-0.3-1.7,0.3-3.7,1.7-5.1c1.2-1.3,3.4-2.7,7.3-2.3l1,0.1l0.3-0.9c0,0,0.8-2.5,3-3.4c1.7-0.7,3.8-0.5,6.3,0.8l0,0
							c0.2,0.1,0.4,0.2,0.6,0.2c0.7,0,1.2-0.5,1.2-1.2c0-0.5-0.3-1-0.8-1.1c-3.2-1.6-6-1.8-8.3-0.8c-2.2,1-3.4,2.9-4,4
							c-3.4-0.1-6.4,1-8.4,3.1c-1.5,1.6-2.3,3.6-2.4,5.6c-2.7,0.2-6.5-0.7-9.4-3.1c-2.5-2.1-3.8-5-3.8-8.6c0-9.4,8.6-11.2,8.9-11.3
							l0.8-0.1l0.2-0.7c1.2-5,5-6.8,6.2-7.2c5.5-2,11.2,1.1,11.2,1.1l0.8,0.4l0.6-0.7c3.1-3.3,6.3-3.4,9.1-3.1
							c5.5,0.6,8.6,5.2,8.6,5.2l0.4,0.7l0.8-0.2c6.4-1.4,10.2,1.6,11.8,3.6c2.5,3,3.3,6.9,2.6,8.8c-0.4,1.2-1.4,2-2.7,2.4
							c-2.2,0.6-4.8,0.1-6.1-0.9c-3.1-2.3-2.5-4.6-2.3-5.2c0.1-0.2,0.1-0.3,0.1-0.5c0-0.7-0.5-1.2-1.2-1.2c-0.5,0-0.9,0.3-1.1,0.7
							l0,0c0,0,0,0,0,0c0,0,0,0,0,0c-0.3,0.7-0.5,1.9-0.2,3.2c-3.5,1-6.4,0.8-8.5-0.7c-1.5-1.1-2.3-2.6-2.6-4
							c0.9-0.3,1.8-0.9,2.6-1.9l0,0c0.2-0.2,0.3-0.5,0.3-0.8c0-0.7-0.5-1.2-1.2-1.2c-0.4,0-0.8,0.2-1,0.6c-2,2.4-4.6,0.8-5.1,0.4
							c-0.2-0.2-0.5-0.3-0.8-0.3c-0.7,0-1.2,0.5-1.2,1.2c0,0.4,0.2,0.7,0.5,1l0,0c0.8,0.6,2.1,1.3,3.6,1.4c0.4,1.9,1.4,4.1,3.6,5.6
							c1.3,0.9,3.2,1.8,6,1.8c1.4,0,3-0.2,4.8-0.8c0.5,0.9,1.3,1.8,2.5,2.6c2.1,1.5,5.5,2,8.2,1.2c1.6-0.5,2.8-1.4,3.6-2.6
							c1.6,0.9,5.9,3.8,5.5,10c-0.2,4.7-3.5,7-5,7.8c-0.7-4.2-4.8-8.8-10.2-9.6c-2.6-0.4-7.5-0.4-11.9,3.6c-1.7-0.6-3.9-0.9-6.6-0.3
							c-0.5-1.1-1.5-1.9-2.8-2.5c-0.2-0.1-0.3-0.1-0.5-0.1c-0.7,0-1.2,0.5-1.2,1.2c0,0.5,0.3,1,0.8,1.1c0.9,0.4,1.5,0.9,1.7,1.6
							c0.4,1.2-0.2,2.8-0.5,3.4c-0.2,0.2-0.3,0.5-0.3,0.8c0,0.7,0.5,1.2,1.2,1.2c0.5,0,0.9-0.3,1.1-0.7l0,0c0.1-0.1,1-1.7,1-3.6
							c6.7-1.5,9.1,3.5,9.4,4.1c0.2,0.5,0.6,0.8,1.1,0.8c0.7,0,1.2-0.5,1.2-1.2c0-0.2,0-0.4-0.1-0.5c-0.2-0.4-1.1-2.3-3-3.8
							c-0.1,0-0.1-0.1-0.2-0.1c3.5-2.8,7.2-2.7,9.3-2.4c5.1,0.8,8.1,5.4,8.3,8.3c0.1,1.8-0.3,6-5.7,7.5c-4.4,1.2-9.1-1.2-9.2-1.3
							l-0.4-0.2l-0.5,0.1C573.5,442.7,569.7,435.7,569.6,435.4z"/>
					</g>
					<g>
						<path class="st3" d="M562.7,402.9c-0.5,0-0.9,0.3-1.1,0.6c-0.5,0.8-1.1,1.3-1.8,1.4c-1.3,0.2-2.8-0.7-3.3-1.1
							c-0.2-0.2-0.5-0.3-0.8-0.3c-0.7,0-1.2,0.5-1.2,1.2c0,0.4,0.2,0.8,0.5,1l0,0c0.1,0.1,1.3,1.1,2.9,1.5c-0.7,5.9-5.8,7.4-8.1,7.8
							c-0.5-1.2-1.5-2.2-3-2.8c-0.2-0.1-0.4-0.2-0.6-0.2c-0.7,0-1.2,0.5-1.2,1.2c0,0.6,0.4,1,0.9,1.2c0.9,0.4,1.5,0.9,1.7,1.6
							c0.4,1.2-0.3,2.9-0.6,3.4c-0.1,0.2-0.2,0.4-0.2,0.6c0,0.7,0.5,1.2,1.2,1.2c0.5,0,0.9-0.3,1.1-0.6l0,0c0-0.1,0.9-1.5,1-3.3
							c1.1-0.2,2.7-0.6,4.4-1.4c2.4-1.3,5.3-3.8,5.8-8.6c1.4-0.3,2.5-1.1,3.4-2.5c0.1-0.2,0.2-0.4,0.2-0.7
							C563.9,403.5,563.4,402.9,562.7,402.9z"/>
					</g>
				</g>
			</g>
			<path class="st4" d="M502.9,465.8c1.1,3.6-0.9,7.4-4.5,8.5l-55.2,16.9c-3.6,1.1-7.4-0.9-8.5-4.5l0,0c-1.1-3.6,0.9-7.4,4.5-8.5
				l55.2-16.9C498,460.1,501.8,462.2,502.9,465.8L502.9,465.8z"/>
			<path class="st5" d="M495.6,432.3c-0.5,3.7-4,6.3-7.7,5.8l-57.2-8.2c-3.7-0.5-6.3-4-5.8-7.7l0,0c0.5-3.7,4-6.3,7.7-5.8l57.2,8.2
				C493.6,425.1,496.2,428.5,495.6,432.3L495.6,432.3z"/>
			<path class="st6" d="M503.4,398.8c-2.1,3.1-6.3,4-9.4,1.9L445.7,369c-3.1-2.1-4-6.3-1.9-9.4l0,0c2.1-3.1,6.3-4,9.4-1.9l48.2,31.8
				C504.6,391.5,505.4,395.7,503.4,398.8L503.4,398.8z"/>
			<path class="st7" d="M524.6,371.9c-3.2,2-7.4,0.9-9.4-2.3l-30-49.3c-2-3.2-0.9-7.4,2.3-9.4l0,0c3.2-2,7.4-0.9,9.4,2.3l30,49.3
				C528.8,365.8,527.8,370,524.6,371.9L524.6,371.9z"/>
			<path class="st8" d="M555.3,356.6c-3.7,0.4-7.1-2.3-7.5-6l-6.1-57.4c-0.4-3.7,2.3-7.1,6-7.5l0,0c3.7-0.4,7.1,2.3,7.5,6l6.1,57.4
				C561.7,352.9,559,356.2,555.3,356.6L555.3,356.6z"/>
			<path class="st9" d="M589.6,355.9c-3.6-1.2-5.4-5.1-4.2-8.7l18.9-54.6c1.2-3.6,5.1-5.4,8.7-4.2l0,0c3.6,1.2,5.4,5.1,4.2,8.7
				l-18.9,54.6C597,355.2,593.1,357.1,589.6,355.9L589.6,355.9z"/>
			<path class="st10" d="M620.9,369.8c-2.7-2.6-2.7-6.9-0.1-9.6l40.4-41.3c2.6-2.7,6.9-2.7,9.6-0.1l0,0c2.7,2.6,2.7,6.9,0.1,9.6
				l-40.4,41.3C627.9,372.4,623.6,372.4,620.9,369.8L620.9,369.8z"/>
			<path class="st11" d="M643.3,395.7c-1.3-3.5,0.5-7.4,4-8.8l54.1-20.2c3.5-1.3,7.4,0.5,8.8,4l0,0c1.3,3.5-0.5,7.4-4,8.8
				l-54.1,20.2C648.5,401,644.6,399.3,643.3,395.7L643.3,395.7z"/>
			<path class="st12" d="M652.5,428.8c0.3-3.7,3.6-6.5,7.4-6.2l57.6,4.8c3.7,0.3,6.5,3.6,6.2,7.4l0,0c-0.3,3.7-3.6,6.5-7.4,6.2
				l-57.6-4.8C655,435.8,652.2,432.5,652.5,428.8L652.5,428.8z"/>
			<path class="st13" d="M646.8,462.6c1.9-3.3,6-4.4,9.3-2.5l50,28.9c3.3,1.9,4.4,6,2.5,9.3l0,0c-1.9,3.3-6,4.4-9.3,2.5l-50-28.9
				C646,470,644.9,465.8,646.8,462.6L646.8,462.6z"/>
			<g>
				<g>
					<path class="st3" d="M422.7,575.9c0,17.5,0,34.9,0,52.4c0,2.8,4.6,2.8,4.6,0c0-17.5,0-34.9,0-52.4
						C427.3,573.1,422.7,573.1,422.7,575.9L422.7,575.9z"/>
				</g>
			</g>
			<g>
				<path class="st3" d="M424.2,575.7c-12.2,0-24.3,0-36.3,0"/>
				<g>
					<path class="st3" d="M424.2,578c-12.1,0-24.2,0-36.3,0c-2.9,0-2.9-4.6,0-4.6c12.1,0,24.2,0,36.3,0
						C427.1,573.4,427.1,578,424.2,578L424.2,578z"/>
				</g>
			</g>
			<g>
				<path class="st3" d="M387.6,576.5c0,6.6,0,12.9,0,19.5"/>
				<g>
					<path class="st3" d="M389.9,576.5c0,6.5,0,13,0,19.5c0,2.9-4.6,2.9-4.6,0c0-6.5,0-13,0-19.5
						C385.4,573.5,389.9,573.5,389.9,576.5L389.9,576.5z"/>
				</g>
			</g>
			<g>
				<path class="st3" d="M387.6,596.7c-10.9,0-21.8,0-33,0"/>
				<g>
					<path class="st3" d="M387.6,599c-11,0-22,0-33,0c-2.9,0-2.9-4.6,0-4.6c11,0,22,0,33,0C390.6,594.5,390.6,599,387.6,599
						L387.6,599z"/>
				</g>
			</g>
			<g>
				<path class="st3" d="M354.4,596.7c0-9.4,0-19,0-28.4"/>
				<g>
					<path class="st3" d="M352.1,596.7c0-9.5,0-18.9,0-28.4c0-2.9,4.6-2.9,4.6,0c0,9.5,0,18.9,0,28.4
						C356.7,599.7,352.1,599.7,352.1,596.7L352.1,596.7z"/>
				</g>
			</g>
			<g>
				<path class="st3" d="M354.4,568.1c-9.1,0-18.3,0-27.4,0"/>
				<g>
					<path class="st3" d="M354.4,570.4c-9.1,0-18.3,0-27.4,0c-2.9,0-2.9-4.6,0-4.6c9.1,0,18.3,0,27.4,0
						C357.4,565.8,357.4,570.4,354.4,570.4L354.4,570.4z"/>
				</g>
			</g>
			<g>
				<g>
					<path class="st3" d="M324.2,569.6c0,18.4,0,36.9,0,55.3c0,2.9,4.6,2.9,4.6,0c0-18.4,0-36.9,0-55.3
						C328.8,566.7,324.2,566.7,324.2,569.6L324.2,569.6z"/>
				</g>
			</g>
			<g>
				<g>
					<path class="st3" d="M202.7,578c12.1,0,24.2,0,36.3,0c2.9,0,2.9-4.6,0-4.6c-12.1,0-24.2,0-36.3,0
						C199.8,573.4,199.8,578,202.7,578L202.7,578z"/>
				</g>
			</g>
			<g>
				<g>
					<path class="st3" d="M237,576.5c0,6.5,0,13,0,19.5c0,2.9,4.6,2.9,4.6,0c0-6.5,0-13,0-19.5C241.5,573.5,237,573.5,237,576.5
						L237,576.5z"/>
				</g>
			</g>
			<g>
				<g>
					<path class="st3" d="M239.3,599c11,0,22,0,33,0c2.9,0,2.9-4.6,0-4.6c-11,0-22,0-33,0C236.3,594.5,236.3,599,239.3,599
						L239.3,599z"/>
				</g>
			</g>
			<g>
				<path class="st3" d="M272.5,596.7c0-9.4,0-19,0-28.4"/>
				<g>
					<path class="st3" d="M274.8,596.7c0-9.5,0-18.9,0-28.4c0-2.9-4.6-2.9-4.6,0c0,9.5,0,18.9,0,28.4
						C270.2,599.7,274.8,599.7,274.8,596.7L274.8,596.7z"/>
				</g>
			</g>
			<g>
				<g>
					<path class="st3" d="M300.9,628.4c8.7,0,17.5,0,26.2,0c2.3,0,2.3-4.6,0-4.6c-8.7,0-17.5,0-26.2,0
						C298.6,623.8,298.6,628.4,300.9,628.4L300.9,628.4z"/>
				</g>
			</g>
			<g>
				<path class="st3" d="M230.8,576.5c-9.1,0-18.3,0-27.4,0"/>
				<g>
					<path class="st3" d="M230.8,578.8c-9.1,0-18.3,0-27.4,0c-2.9,0-2.9-4.6,0-4.6c9.1,0,18.3,0,27.4,0
						C233.7,574.2,233.7,578.8,230.8,578.8L230.8,578.8z"/>
				</g>
			</g>
			<g>
				<g>
					<path class="st3" d="M200.5,578c0,18.4,0,36.9,0,55.3c0,2.9,4.6,2.9,4.6,0c0-18.4,0-36.9,0-55.3C205.1,575,200.5,575,200.5,578
						L200.5,578z"/>
				</g>
			</g>
			<g>
				<g>
					<path class="st3" d="M203.8,632.5c-17.4,0-34.8,0-52.2,0c-1.6,0-1.6,4.6,0,4.6c17.4,0,34.8,0,52.2,0
						C205.4,637.1,205.4,632.5,203.8,632.5L203.8,632.5z"/>
				</g>
			</g>
			<g>
				<g>
					<path class="st3" d="M150.2,582.2c0,17.5,0,34.9,0,52.4c0,2.8,4.6,2.8,4.6,0c0-17.5,0-34.9,0-52.4
						C154.8,579.4,150.2,579.4,150.2,582.2L150.2,582.2z"/>
				</g>
			</g>
			<g>
				<path class="st3" d="M151.7,582c-12.2,0-24.3,0-36.3,0"/>
				<g>
					<path class="st3" d="M151.7,584.3c-12.1,0-24.2,0-36.3,0c-2.9,0-2.9-4.6,0-4.6c12.1,0,24.2,0,36.3,0
						C154.6,579.7,154.6,584.3,151.7,584.3L151.7,584.3z"/>
				</g>
			</g>
			<g>
				<path class="st3" d="M115.2,582.7c0,6.6,0,12.9,0,19.5"/>
				<g>
					<path class="st3" d="M117.5,582.7c0,6.5,0,13,0,19.5c0,2.9-4.6,2.9-4.6,0c0-6.5,0-13,0-19.5
						C112.9,579.8,117.5,579.8,117.5,582.7L117.5,582.7z"/>
				</g>
			</g>
			<g>
				<path class="st3" d="M115.2,603c-10.9,0-21.8,0-33,0"/>
				<g>
					<path class="st3" d="M115.2,605.3c-11,0-22,0-33,0c-2.9,0-2.9-4.6,0-4.6c11,0,22,0,33,0C118.1,600.7,118.1,605.3,115.2,605.3
						L115.2,605.3z"/>
				</g>
			</g>
		</g>
	</g>
</g>
<g id="GRAFICO">
	<g>
		<g>
			<rect x="219.1" y="272.7" class="st14" width="35" height="30"/>
		</g>
		<g>
			<rect x="170" y="287.7" class="st14" width="35.2" height="15"/>
		</g>
		<g>
			<g>
				<rect x="267.9" y="258.3" class="st14" width="35" height="29.4"/>
			</g>
			<g>
				<rect x="267.9" y="287.7" class="st14" width="35" height="15"/>
			</g>
		</g>
		<g>
			<g>
				<rect x="316.8" y="272.7" class="st14" width="35" height="30"/>
			</g>
			<g>
				<rect x="316.8" y="242.7" class="st14" width="35" height="30"/>
			</g>
		</g>
		<g>
			<g>
				<rect x="366.3" y="260" class="st14" width="34" height="27.6"/>
				<path class="st14" d="M399.7,260.5v26.6h-32.9v-26.6H399.7 M400.7,259.4h-35v28.7h35V259.4L400.7,259.4z"/>
			</g>
			<g>
				<rect x="366.3" y="288.6" class="st14" width="34" height="13.6"/>
				<path class="st14" d="M399.7,289.1v12.5h-32.9v-12.5H399.7 M400.7,288.1h-35v14.6h35V288.1L400.7,288.1z"/>
			</g>
			<g>
				<rect x="366.3" y="230.7" class="st14" width="34" height="28.2"/>
				<path class="st14" d="M399.7,231.3v27.1h-32.9v-27.1H399.7 M400.7,230.2h-35v29.2h35V230.2L400.7,230.2z"/>
			</g>
			<g>
				<rect x="366.3" y="187.5" class="st14" width="34" height="27.6"/>
				<path class="st14" d="M399.7,188v26.6h-32.9V188H399.7 M400.7,187h-35v28.7h35V187L400.7,187z"/>
			</g>
			<g>
				<rect x="366.3" y="216.1" class="st14" width="34" height="13.6"/>
				<path class="st14" d="M399.7,216.7v12.5h-32.9v-12.5H399.7 M400.7,215.6h-35v14.6h35V215.6L400.7,215.6z"/>
			</g>
			<g>
				<rect x="366.3" y="158.3" class="st14" width="34" height="28.2"/>
				<path class="st14" d="M399.7,158.8v27.1h-32.9v-27.1H399.7 M400.7,157.8h-35V187h35V157.8L400.7,157.8z"/>
			</g>
		</g>
		<g>
			<rect x="121.1" y="287.7" class="st14" width="35.2" height="15"/>
		</g>
		<line class="st15" x1="138.6" y1="267.7" x2="187.5" y2="267.7"/>
		<line class="st15" x1="377.7" y1="123" x2="334.4" y2="208"/>
		<circle class="st3" cx="380.7" cy="121.2" r="11.6"/>
		<line class="st15" x1="187.2" y1="267.4" x2="236.1" y2="246.3"/>
		<line class="st15" x1="285.5" y1="231.3" x2="236.1" y2="246.3"/>
		<line class="st15" x1="334.4" y1="211.3" x2="285.5" y2="231.3"/>
		<line class="st16" x1="109.4" y1="159.2" x2="109.4" y2="327.5"/>
		<line class="st16" x1="95" y1="313.6" x2="416" y2="313.6"/>
		<circle class="st17" cx="138.5" cy="266.1" r="11.6"/>
		<circle class="st18" cx="187.4" cy="266.1" r="11.6"/>
		<circle class="st19" cx="236.3" cy="246.1" r="11.6"/>
		<circle class="st20" cx="285.7" cy="231.1" r="11.6"/>
		<circle class="st21" cx="334.6" cy="211.1" r="11.6"/>
	</g>
</g>
<g id="Camada_4">
	<circle class="st0" cx="191" cy="640" r="124.5"/>
	<g>
		<g>
			<path class="st2" d="M229,682h-79.1c-12.8,0-23.2-10.5-23.2-23.2V584c0-12.8,10.5-23.2,23.2-23.2H229c12.8,0,23.2,10.5,23.2,23.2
				v74.7C252.3,671.5,241.8,682,229,682z"/>
			<g>
				<g>
					<g>
						<g>
							<path class="st19" d="M200.3,636.6h-25.5c-3.6,0-6.6-3-6.6-6.6v-53.5c0-3.6,3-6.6,6.6-6.6h25.5c3.6,0,6.6,3,6.6,6.6V630
								C206.9,633.7,204,636.6,200.3,636.6z"/>
							<path class="st22" d="M200.3,636.6h-25.5c-3.6,0-6.6-3-6.6-6.6v-53.5c0-3.6,3-6.6,6.6-6.6h25.5c3.6,0,6.6,3,6.6,6.6V630
								C206.9,633.7,204,636.6,200.3,636.6z"/>
						</g>
					</g>
				</g>
				<path class="st23" d="M224.3,636.6h-19.5c-2.5,0-4.5-2-4.5-4.5V593c0-3.4,3.5-5.5,6.5-4l19.5,9.9c1.5,0.8,2.5,2.3,2.5,4v29.3
					C228.8,634.6,226.8,636.6,224.3,636.6z"/>
				<g>
					<g>
						<g>
							<path class="st18" d="M172.4,636.6h-17.4c-3,0-5.5-2.5-5.5-5.5v-28.4c0-3,2.5-5.5,5.5-5.5h17.4c3,0,5.5,2.5,5.5,5.5v28.4
								C177.9,634.2,175.5,636.6,172.4,636.6z"/>
							<path class="st22" d="M172.4,636.6h-17.4c-3,0-5.5-2.5-5.5-5.5v-28.4c0-3,2.5-5.5,5.5-5.5h17.4c3,0,5.5,2.5,5.5,5.5v28.4
								C177.9,634.2,175.5,636.6,172.4,636.6z"/>
						</g>
					</g>
				</g>
				<g>
					<path class="st24" d="M151.5,636.6h-9c-2.8,0-5-2.2-5-5v-16.9c0-2.8,2.2-5,5-5h9c2.8,0,5,2.2,5,5v16.9
						C156.5,634.4,154.3,636.6,151.5,636.6z"/>
				</g>
				<path class="st25" d="M237.1,636.6h-10.4c-2.4,0-4.3-1.9-4.3-4.3v-18.3c0-2.4,1.9-4.3,4.3-4.3h10.4c2.4,0,4.3,1.9,4.3,4.3v18.3
					C241.4,634.7,239.5,636.6,237.1,636.6z"/>
			</g>
		</g>
		<g>
			<g>
				<g>
					<g>
						<path class="st3" d="M142.7,713.4c-0.2,0.4-0.6,0.7-1.1,0.7h-1.7c-0.6,0-0.9-0.2-1.1-0.7l-3.3-7.3c-0.4-0.8-0.9-2.8-1.1-3.6
							c0.1,0.7,0.3,3,0.3,3.7v14.7c0,0.6-0.5,1.1-1.1,1.1h-1.6c-0.6,0-1.1-0.5-1.1-1.1v-25.4c0-0.6,0.5-1.1,1.1-1.1h1.6
							c0.4,0,0.9,0.2,1.1,0.7l5.3,11.7c0.3,0.6,0.7,1.6,0.8,2.4c0.2-0.7,0.6-1.8,0.8-2.4l5.3-11.7c0.2-0.5,0.7-0.7,1.1-0.7h1.5
							c0.6,0,1.1,0.5,1.1,1.1v25.4c0,0.6-0.5,1.1-1.1,1.1h-1.6c-0.6,0-1.1-0.5-1.1-1.1v-14.7c0-1,0.2-2.6,0.4-3.5
							c-0.2,0.7-0.7,2.4-1.2,3.4L142.7,713.4z"/>
					</g>
				</g>
				<g>
					<g>
						<path class="st3" d="M171.5,714.9c0,3.9-3.1,7.1-7.1,7.1h-1.8c-3.9,0-7.1-3.2-7.1-7.1v-13.5c0-3.9,3.2-7.1,7.1-7.1h1.8
							c4,0,7.1,3.2,7.1,7.1V714.9z M163.6,690.9l-1.4,1.2c-0.6,0.5-0.9,0.7-1.5,0.7h-1.1c-0.6,0-1.1-0.4-0.6-1.1l1.7-2.4
							c0.5-0.7,1-1,1.5-1h2.6c0.6,0,1,0.2,1.5,1l1.7,2.4c0.5,0.7,0,1.1-0.6,1.1h-1.1c-0.6,0-0.8-0.2-1.4-0.7L163.6,690.9z
							 M164.4,718.5c1.8,0,3.3-1.5,3.3-3.4v-13.8c0-1.9-1.5-3.4-3.3-3.4h-1.8c-1.8,0-3.2,1.5-3.2,3.4v13.8c0,1.9,1.5,3.4,3.2,3.4
							H164.4z"/>
					</g>
				</g>
				<g>
					<g>
						<path class="st3" d="M181,706.1c-0.6-1.4-1-2.8-1.1-3.3c0.1,0.7,0.3,2,0.3,3.4v14.7c0,0.6-0.5,1.1-1.1,1.1h-1.5
							c-0.6,0-1.1-0.5-1.1-1.1v-25.4c0-0.6,0.5-1.1,1.1-1.1h1.8c0.4,0,0.8,0.2,1.1,0.7l7.4,16.4c0.5,1.1,0.9,2.5,1.1,3
							c-0.1-0.5-0.3-2-0.3-3v-16c0-0.6,0.5-1.1,1.1-1.1h1.5c0.6,0,1.1,0.5,1.1,1.1v25.4c0,0.6-0.5,1.1-1.1,1.1h-2.1
							c-0.4,0-1-0.2-1.2-0.6L181,706.1z"/>
					</g>
				</g>
				<g>
					<g>
						<path class="st3" d="M199.4,698.1c0.7-2.3,2.9-3.8,5.5-3.8c2.5,0,4.8,1.5,5.5,3.8l2.2,7.5c0.2,0.8,0.4,2.5,0.4,3.3v12
							c0,0.6-0.5,1.1-1.1,1.1h-1.5c-0.6,0-1.1-0.5-1.1-1.1v-7.9h-8.4v7.9c0,0.6-0.5,1.1-1.1,1.1H198c-0.6,0-1.1-0.5-1.1-1.1v-12
							c0-0.7,0.1-2.3,0.4-3.3L199.4,698.1z M200.7,709.4h8.4v-0.4c0-0.5-0.1-2.1-0.3-2.7l-1.9-6.7c-0.3-1-0.9-1.9-2-1.9
							c-1.1,0-1.7,0.7-2,1.9l-1.9,6.6c-0.3,0.9-0.3,2.1-0.3,2.7V709.4z"/>
					</g>
				</g>
				<g>
					<g>
						<path class="st3" d="M217.5,720.9v-25.4c0-0.6,0.5-1.1,1.1-1.1h7.7c4,0,7.1,3.2,7.1,7.1v13.5c0,3.9-3.1,7.1-7.1,7.1h-7.7
							C218,722,217.5,721.5,217.5,720.9z M221.3,718.5h5.1c1.8,0,3.3-1.5,3.3-3.4v-13.8c0-1.9-1.5-3.4-3.3-3.4h-5.1V718.5z"/>
					</g>
				</g>
				<g>
					<g>
						<path class="st3" d="M240.7,698.1c0.7-2.3,2.9-3.8,5.5-3.8c2.5,0,4.8,1.5,5.5,3.8l2.2,7.5c0.2,0.8,0.4,2.5,0.4,3.3v12
							c0,0.6-0.5,1.1-1.1,1.1h-1.5c-0.6,0-1.1-0.5-1.1-1.1v-7.9h-8.4v7.9c0,0.6-0.5,1.1-1.1,1.1h-1.5c-0.6,0-1.1-0.5-1.1-1.1v-12
							c0-0.7,0.1-2.3,0.4-3.3L240.7,698.1z M241.9,709.4h8.4v-0.4c0-0.5-0.1-2.1-0.3-2.7l-1.9-6.7c-0.3-1-0.9-1.9-2-1.9
							c-1.1,0-1.7,0.7-2,1.9l-1.9,6.6c-0.3,0.9-0.3,2.1-0.3,2.7V709.4z"/>
					</g>
				</g>
			</g>
		</g>
		<g>
			<linearGradient id="SVGID_3_" gradientUnits="userSpaceOnUse" x1="128.8265" y1="662.4803" x2="249.9297" y2="662.4803">
				<stop  offset="0" style="stop-color:#A89FEC"/>
				<stop  offset="0.1443" style="stop-color:#A798EC"/>
				<stop  offset="0.3482" style="stop-color:#A486EA"/>
				<stop  offset="0.5875" style="stop-color:#A068E8"/>
				<stop  offset="0.8518" style="stop-color:#9A3EE6"/>
				<stop  offset="1" style="stop-color:#9623E4"/>
			</linearGradient>
			<path class="st26" d="M231.9,681.4h-85.1c-9.9,0-18-8.1-18-18v-1.8c0-9.9,8.1-18,18-18h85.1c9.9,0,18,8.1,18,18v1.8
				C249.9,673.3,241.8,681.4,231.9,681.4z"/>
			<ellipse class="st3" cx="231.2" cy="662.7" rx="17.8" ry="17.1"/>
		</g>
	</g>
</g>
</g>
</svg>
