<svg width="73" height="74" viewBox="0 0 73 74" fill="none" xmlns="http://www.w3.org/2000/svg">
<path d="M36.4 72.1C16.8 72.1 0.899994 56.2 0.899994 36.6C0.899994 16.9 16.8 1 36.4 1C56 1 72 16.9 72 36.5C72 56.2 56 72.1 36.4 72.1Z" fill="#EEEEEE"/>
<path d="M31 58.0001H39.7V36.4001H45.7L46.3 29.1001H39.6C39.6 29.1001 39.6 26.4001 39.6 25.0001C39.6 23.3001 39.9 22.6001 41.6 22.6001C42.9 22.6001 46.3 22.6001 46.3 22.6001V15.1001C46.3 15.1001 41.4 15.1001 40.3 15.1001C33.9 15.1001 31 17.9001 31 23.4001C31 28.1001 31 29.2001 31 29.2001H26.5V36.5001H31V58.0001Z" fill="#9623E4"/>
<path d="M36.5 72.1001C16.9 72.1001 1 56.2001 1 36.6001C1 17.0001 16.9 1.1001 36.5 1.1001C56.1 1.1001 72 17.0001 72 36.6001C72 56.2001 56.1 72.1001 36.5 72.1001Z" fill="#EEEEEE"/>
<path d="M36.5 20.6001C41.7 20.6001 42.3 20.6001 44.4 20.7001C46.3 20.8001 47.3 21.1001 48 21.4001C48.9 21.8001 49.6 22.2001 50.2 22.9001C50.9 23.6001 51.3 24.2001 51.7 25.1001C52 25.8001 52.3 26.8001 52.4 28.7001C52.5 30.8001 52.5 31.4001 52.5 36.6001C52.5 41.8001 52.5 42.4001 52.4 44.5001C52.3 46.4001 52 47.4001 51.7 48.1001C51.3 49.0001 50.9 49.7001 50.2 50.3001C49.5 51.0001 48.9 51.4001 48 51.8001C47.3 52.1001 46.3 52.4001 44.4 52.5001C42.3 52.6001 41.7 52.6001 36.5 52.6001C31.3 52.6001 30.7 52.6001 28.6 52.5001C26.7 52.4001 25.7 52.1001 25 51.8001C24.1 51.4001 23.4 51.0001 22.8 50.3001C22.1 49.6001 21.7 49.0001 21.3 48.1001C21 47.4001 20.7 46.4001 20.6 44.5001C20.5 42.4001 20.5 41.8001 20.5 36.6001C20.5 31.4001 20.5 30.8001 20.6 28.7001C20.7 26.8001 21 25.8001 21.3 25.1001C21.7 24.2001 22.1 23.5001 22.8 22.9001C23.5 22.2001 24.1 21.8001 25 21.4001C25.7 21.1001 26.7 20.8001 28.6 20.7001C30.7 20.6001 31.3 20.6001 36.5 20.6001ZM36.5 17.1001C31.2 17.1001 30.6 17.1001 28.5 17.2001C26.4 17.3001 25 17.6001 23.8 18.1001C22.5 18.6001 21.4 19.3001 20.4 20.3001C19.4 21.3001 18.7 22.5001 18.2 23.7001C17.7 24.9001 17.4 26.4001 17.3 28.4001C17.2 30.5001 17.2 31.1001 17.2 36.4001C17.2 41.7001 17.2 42.3001 17.3 44.4001C17.4 46.5001 17.7 47.9001 18.2 49.1001C18.7 50.4001 19.4 51.5001 20.4 52.5001C21.4 53.5001 22.6 54.2001 23.8 54.7001C25 55.2001 26.5 55.5001 28.5 55.6001C30.6 55.7001 31.2 55.7001 36.5 55.7001C41.8 55.7001 42.4 55.7001 44.5 55.6001C46.6 55.5001 48 55.2001 49.2 54.7001C50.5 54.2001 51.6 53.5001 52.6 52.5001C53.6 51.5001 54.3 50.3001 54.8 49.1001C55.3 47.9001 55.6 46.4001 55.7 44.4001C55.8 42.3001 55.8 41.7001 55.8 36.4001C55.8 31.1001 55.8 30.5001 55.7 28.4001C55.6 26.3001 55.3 24.9001 54.8 23.7001C54.3 22.4001 53.6 21.3001 52.6 20.3001C51.6 19.3001 50.4 18.6001 49.2 18.1001C48 17.6001 46.5 17.3001 44.5 17.2001C42.4 17.1001 41.8 17.1001 36.5 17.1001Z" fill="#9623E4"/>
<path d="M36.5 26.6001C31 26.6001 26.5 31.1001 26.5 36.6001C26.5 42.1001 31 46.6001 36.5 46.6001C42 46.6001 46.5 42.1001 46.5 36.6001C46.5 31.1001 42 26.6001 36.5 26.6001ZM36.5 43.1001C32.9 43.1001 30 40.2001 30 36.6001C30 33.0001 32.9 30.1001 36.5 30.1001C40.1 30.1001 43 33.0001 43 36.6001C43 40.2001 40.1 43.1001 36.5 43.1001Z" fill="#9623E4"/>
<path d="M49.2 26.2001C49.2 27.5001 48.2 28.5001 46.9 28.5001C45.6 28.5001 44.6 27.5001 44.6 26.2001C44.6 24.9001 45.6 23.9001 46.9 23.9001C48.2 23.8001 49.2 24.9001 49.2 26.2001Z" fill="#9623E4"/>
</svg>
