<svg xmlns="http://www.w3.org/2000/svg" xmlns:xlink="http://www.w3.org/1999/xlink" viewBox="0 0 333 266" width="333" height="266">
<g fill="#A7AEDB">
	<rect x="12.7" y="88.7" width="50.5" height="80.7"/>
	<rect x="257.6" y="77.9" width="50.5" height="91.5"/>
	<rect x="73.9" y="38.8" width="50.5" height="130.7"/>
	<polygon points="246.4,169.5 195.8,169.5 195.8,38.8 247.4,63.2"/>
	<rect x="135.1" y="0.5" width="50.5" height="169"/>
</g>
<g fill="#9623E4" stroke="#9623E4" stroke-linejoin="round" stroke-miterlimit="10">
	<polygon stroke-width="9.0183" stroke-linecap="round" points="17.4,142.9 4.6,151.4 96.5,84.1 150.7,136 207.1,83.9 266.4,139.9 309,68.8 316.4,70.5 267.9,153.4 207.2,96.2 150.4,148.7 95.1,96.7"/>
	<polygon stroke-width="4.475" points="315.6,66.9 281.3,67 333.1,36.5 331.4,96.7"/>
</g>
<g fill="#9623E4" stroke="#9623E4" stroke-miterlimit="10" >
	<path d="M48.4,247c-0.5,1-1.3,1.5-2.5,1.5h-3.8c-1.3,0-1.9-0.5-2.4-1.5l-7.2-16c-0.9-1.8-2-6.1-2.5-7.9c0.3,1.5,0.7,6.7,0.7,8v32.3c0,1.4-1.2,2.5-2.5,2.5h-3.5c-1.3,0-2.4-1.2-2.4-2.5v-55.9c0-1.4,1.2-2.5,2.4-2.5h3.6c1,0,1.9,0.5,2.4,1.6l11.6,25.8c0.6,1.4,1.5,3.6,1.8,5.3c0.4-1.6,1.3-4.1,1.8-5.3l11.6-25.8c0.5-1.2,1.5-1.6,2.4-1.6h3.4c1.4,0,2.5,1.2,2.5,2.5v55.9c0,1.4-1.2,2.5-2.5,2.5h-3.5c-1.4,0-2.5-1.2-2.5-2.5v-32.3c0-2.2,0.4-5.6,0.8-7.6c-0.5,1.5-1.5,5.2-2.6,7.5L48.4,247z"/>
	<path d="M112.4,250.4c0,8.6-6.9,15.6-15.6,15.6h-4c-8.6,0-15.6-7-15.6-15.6v-29.8c0-8.6,7.1-15.6,15.6-15.6h4c8.7,0,15.6,7,15.6,15.6V250.4z M95.1,195.5l-3,2.7c-1.3,1.2-1.9,1.5-3.2,1.5h-2.5c-1.3,0-2.3-0.8-1.3-2.3l3.8-5.2c1.2-1.5,2.1-4.1,3.4-4.1H98c1.3,0,2.1,2.4,3.4,4.1l3.8,5.2c1.1,1.5,0,2.3-1.3,2.3h-2.5c-1.3,0-1.8-0.4-3.1-1.5L95.1,195.5zM96.8,258.3c4,0,7.2-3.3,7.2-7.5v-30.4c0-4.3-3.2-7.5-7.2-7.5h-4.1c-3.9,0-7.1,3.3-7.1,7.5v30.4c0,4.3,3.2,7.5,7.1,7.5H96.8z"/>
	<path d="M138.3,231.1c-1.4-3-2.2-6.1-2.5-7.4c0.2,1.5,0.7,4.4,0.7,7.4v32.3c0,1.4-1.2,2.5-2.5,2.5h-3.4c-1.4,0-2.5-1.2-2.5-2.5v-55.9c0-1.4,1.2-2.5,2.5-2.5h3.9c1,0,1.8,0.5,2.4,1.6l16.2,36.1c1.1,2.3,1.9,5.4,2.3,6.7c-0.2-1.1-0.7-4.4-0.7-6.7v-35.2c0-1.4,1.2-2.5,2.5-2.5h3.4c1.4,0,2.5,1.2,2.5,2.5v55.9c0,1.4-1.2,2.5-2.5,2.5h-4.5c-1,0-2.2-0.4-2.6-1.3L138.3,231.1z"/>
	<path d="M184.3,213.5c1.5-5,6.5-8.4,12-8.4c5.5,0,10.6,3.4,12.1,8.4l4.7,16.5c0.5,1.7,0.8,5.5,0.8,7.2v26.3c0,1.4-1.2,2.5-2.5,2.5H208c-1.4,0-2.5-1.2-2.5-2.5v-17.4h-18.4v17.4c0,1.4-1.2,2.5-2.5,2.5h-3.4c-1.4,0-2.5-1.2-2.5-2.5v-26.3c0-1.5,0.2-5,0.8-7.2L184.3,213.5z M187.1,238.3h18.4v-0.8c0-1.1-0.3-4.6-0.7-5.9l-4.2-14.7c-0.7-2.2-2-4.2-4.4-4.2c-2.3,0-3.7,1.6-4.4,4.2l-4.2,14.6c-0.6,2-0.7,4.6-0.7,6V238.3z"/>
	<path d="M229.5,263.5v-55.9c0-1.4,1.2-2.5,2.5-2.5h17c8.7,0,15.6,7,15.6,15.6v29.8c0,8.6-6.9,15.6-15.6,15.6h-17C230.7,266,229.5,264.8,229.5,263.5z M237.9,258.3H249c4,0,7.2-3.3,7.2-7.5v-30.4c0-4.3-3.2-7.5-7.2-7.5h-11.1V258.3z"/>
	<path d="M285.8,213.5c1.5-5,6.5-8.4,12-8.4c5.5,0,10.6,3.4,12.1,8.4l4.7,16.5c0.5,1.7,0.8,5.5,0.8,7.2v26.3c0,1.4-1.2,2.5-2.5,2.5h-3.4c-1.4,0-2.5-1.2-2.5-2.5v-17.4h-18.4v17.4c0,1.4-1.2,2.5-2.5,2.5h-3.4c-1.4,0-2.5-1.2-2.5-2.5v-26.3c0-1.5,0.2-5,0.8-7.2L285.8,213.5z M288.6,238.3H307v-0.8c0-1.1-0.3-4.6-0.7-5.9l-4.2-14.7c-0.7-2.2-2-4.2-4.4-4.2c-2.3,0-3.7,1.6-4.4,4.2l-4.2,14.6c-0.6,2-0.7,4.6-0.7,6V238.3z"/>
</g>
</svg>
