<svg width="394.1819763183594" height="81.89623260498047" viewBox="57.4119987487793 53.0458984375 394.1819763183594 81.89623260498047" xmlns="http://www.w3.org/2000/svg">
<g>
<path d="M103.295 134.291C88.3813 134.291 73.468 134.291 58.5547 134.291C57.6841 134.291 57.412 134.134 57.412 133.194C57.4282 106.845 57.4362 80.4913 57.4362 54.1312C57.4362 53.3052 57.5995 53.0459 58.4822 53.0459C88.4175 53.0539 118.341 53.058 148.252 53.058C149.213 53.058 149.352 53.3534 149.352 54.2096C149.34 80.4933 149.334 106.779 149.334 133.067C149.334 134.032 149.135 134.315 148.125 134.315C133.184 134.279 118.24 134.271 103.295 134.291ZM103.337 128.189C116.295 128.189 129.254 128.189 142.212 128.189C142.998 128.189 143.24 128.02 143.24 127.194C143.212 111.518 143.212 95.86 143.24 80.22C143.25 79.954 143.201 79.6891 143.096 79.4442C142.992 79.1993 142.834 78.9804 142.635 78.8031C140.912 77.133 139.201 75.4569 137.545 73.7264C136.94 73.1235 136.65 73.1235 136.027 73.7264C123.532 85.7127 111.015 97.6889 98.4759 109.655C97.9137 110.192 97.6053 110.228 97.0189 109.655C90.1628 103.204 83.2765 96.7825 76.4144 90.3613C75.8944 89.8669 75.6224 89.7584 75.048 90.3613C71.4648 93.9427 67.8513 97.494 64.2077 101.015C63.9852 101.218 63.8107 101.468 63.6968 101.746C63.5828 102.025 63.5322 102.325 63.5487 102.625C63.5487 110.795 63.5487 118.97 63.5487 127.14C63.5487 128.081 63.8147 128.243 64.6913 128.243C77.5651 128.191 90.447 128.173 103.337 128.189ZM63.6998 85.4776C63.9658 85.2424 64.2077 85.0254 64.4495 84.8023C67.9017 81.5766 71.3721 78.375 74.782 75.1072C75.447 74.4741 75.7675 74.5525 76.3962 75.1072C83.3007 81.5525 90.2474 87.9556 97.1579 94.401C97.6718 94.8833 97.9379 94.8954 98.4457 94.401C108.236 84.6375 118.043 74.8901 127.865 65.1588C128.47 64.5559 128.379 64.2544 127.823 63.7419C126.444 62.4637 125.096 61.1433 123.778 59.7987C123.573 59.5767 123.322 59.4022 123.042 59.2876C122.762 59.173 122.46 59.1211 122.158 59.1355C102.964 59.1355 83.7702 59.1355 64.5765 59.1355C63.6998 59.1355 63.5124 59.3887 63.5184 60.2208C63.5487 68.3181 63.5184 76.4215 63.5184 84.5189C63.46 84.8506 63.5267 85.1921 63.7059 85.4776H63.6998Z" fill="#E63338"/>
<path d="M324.472 75.5774V74.3716C324.472 68.3905 324.472 62.4094 324.472 56.4223C324.472 55.7169 324.63 55.4034 325.379 55.2948C328.934 54.7703 332.489 54.2276 336.026 53.5885C337.012 53.4077 337.235 53.5885 337.235 54.5713C337.207 74.9102 337.207 95.2511 337.235 115.594C337.235 117.945 337.235 117.964 334.986 118.476C328.88 119.863 322.701 120.743 316.437 120.285C308.227 119.712 301.704 116.299 298.022 108.576C296.721 105.778 295.973 102.757 295.821 99.6766C295.476 94.1417 296.045 88.7455 298.56 83.711C301.716 77.3923 306.945 74.1967 313.94 73.7204C317.37 73.4327 320.818 73.9961 323.977 75.3604C324.061 75.4689 324.225 75.5051 324.472 75.5774ZM324.472 97.6508C324.472 94.1296 324.472 90.6085 324.472 87.0874C324.513 86.773 324.439 86.4547 324.265 86.1895C324.091 85.9243 323.828 85.7296 323.523 85.6404C321.35 84.6917 318.98 84.2781 316.613 84.4345C315.197 84.4605 313.818 84.8906 312.639 85.6739C311.46 86.4571 310.532 87.5607 309.962 88.854C309.244 90.408 308.814 92.079 308.693 93.786C308.366 97.5 308.487 101.166 310.246 104.584C310.869 105.925 311.825 107.084 313.024 107.952C314.223 108.819 315.625 109.366 317.096 109.541C319.28 109.744 321.479 109.692 323.65 109.384C324.315 109.317 324.46 109.04 324.454 108.413C324.46 104.826 324.472 101.238 324.472 97.6749V97.6508Z" fill="#2F529F"/>
<path d="M174.443 118.247C174.443 120.96 174.443 123.523 174.443 126.085C174.443 128.75 174.443 131.415 174.443 134.08C174.443 134.743 174.274 134.948 173.59 134.942C169.927 134.906 166.257 134.9 162.587 134.942C161.813 134.942 161.71 134.665 161.716 133.996C161.747 130.921 161.716 127.846 161.716 124.771C161.716 108.946 161.716 93.1209 161.716 77.2959C161.716 76.3614 162 76.0237 162.895 75.8127C169.594 74.2511 176.341 73.2623 183.252 73.7688C193.772 74.5405 201.474 81.7335 202.883 92.1341C203.717 98.2779 203.312 104.301 200.579 109.957C197.442 116.45 192.115 119.766 184.927 120.146C181.331 120.337 177.741 119.686 174.443 118.247ZM174.443 96.2461C174.443 99.6989 174.443 103.15 174.443 106.598C174.446 106.632 174.446 106.667 174.443 106.701C174.268 107.569 174.715 107.979 175.477 108.287C176.834 108.839 178.256 109.218 179.709 109.414C184.709 110.089 188.246 107.961 189.558 103.306C190.7 99.4095 190.664 95.2632 189.455 91.3864C188.246 87.6061 185.827 85.0496 181.746 84.513C179.663 84.315 177.564 84.3535 175.489 84.6276C174.667 84.706 174.395 84.9471 174.407 85.7973C174.473 89.2762 174.443 92.7611 174.443 96.2461Z" fill="#2F529F"/>
<path d="M429.678 103.915C430.023 103.432 430.262 102.881 430.379 102.299C433.402 93.5447 435.881 84.6454 438.202 75.6919C438.426 74.8357 438.807 74.5945 439.647 74.6066C443.589 74.6548 447.507 74.6066 451.594 74.6066C451.104 76.2466 450.645 77.8082 450.167 79.3637C446.004 93.2269 440.916 106.797 434.937 119.983C433.166 123.842 431.262 127.628 428.184 130.673C425.417 133.39 421.686 134.907 417.803 134.894C414.254 134.996 410.754 134.833 407.362 133.652C406.576 133.38 406.31 133.097 406.522 132.223C407.193 129.473 407.785 126.7 408.335 123.926C408.468 123.281 408.656 123.173 409.266 123.384C411.509 124.152 413.886 124.454 416.25 124.27C417.212 124.228 418.153 123.969 419 123.511C419.847 123.054 420.579 122.41 421.141 121.629L421.745 120.803C423.16 118.898 423.444 117.186 422.241 114.774C415.97 102.204 410.871 89.0852 407.011 75.5834C406.757 74.697 406.89 74.5222 407.803 74.5343C411.54 74.5825 415.276 74.5946 419.013 74.5343C419.974 74.5343 420.27 74.8538 420.5 75.7039C422.991 85.0008 425.949 94.1669 429.363 103.167C429.472 103.451 429.569 103.662 429.678 103.915Z" fill="#2F529F"/>
<path d="M273.336 101.112C268.916 101.112 264.491 101.112 260.071 101.112C259.243 101.112 258.917 101.19 259.164 102.167C260.222 106.387 263.209 108.473 267.199 109.263C272.508 110.312 277.701 109.48 282.774 107.81C283.523 107.563 283.717 107.617 283.838 108.413C284.269 111.315 284.751 114.211 285.283 117.101C285.416 117.813 285.017 117.921 284.575 118.096C282.331 118.935 280.002 119.528 277.629 119.863C272.659 120.641 267.671 120.978 262.719 119.821C253.735 117.722 248.209 112.181 246.559 103.089C245.428 96.8428 245.821 90.699 248.765 84.9108C250.635 81.1681 253.595 78.0767 257.259 76.0429C260.922 74.0091 265.117 73.128 269.291 73.5154C273.415 73.847 277.23 74.9202 280.531 77.4948C284.491 80.5818 286.51 84.7782 287.423 89.5896C288.052 93.1719 288.192 96.8225 287.84 100.442C287.786 101.148 287.441 101.166 286.909 101.166C282.387 101.122 277.862 101.104 273.336 101.112ZM267.387 92.4776C269.92 92.4776 272.459 92.4776 274.993 92.4776C275.567 92.4776 275.785 92.345 275.712 91.736C275.605 90.509 275.285 89.3096 274.769 88.1908C273.209 85.0555 270.585 83.7411 267.151 83.8557C265.562 83.8689 264.016 84.3703 262.723 85.2918C261.43 86.2132 260.453 87.5097 259.926 89.0047C259.655 89.7414 259.431 90.4946 259.255 91.2597C258.965 92.4656 258.983 92.4656 260.186 92.4656L267.387 92.4776Z" fill="#2F529F"/>
<path d="M373.71 92.5499C373.795 86.0744 373.456 78.0795 373.849 70.0786C374.134 64.3327 376.431 59.4911 381.443 56.2655C384.248 54.4567 387.423 53.7693 390.699 53.5221C395.018 53.1943 399.358 53.7819 403.432 55.2465C404.109 55.4877 404.224 55.759 404.037 56.4102C403.319 59.2238 402.63 62.0375 401.969 64.8512C401.806 65.5385 401.552 65.5807 400.941 65.3396C398.763 64.503 396.443 64.0935 394.109 64.1337C389.188 64.1759 386.631 66.6118 386.377 71.5076C386.34 72.2552 386.407 73.0149 386.34 73.7625C386.274 74.5102 386.588 74.6488 387.271 74.6428C391.83 74.6428 396.389 74.6428 400.947 74.6066C401.788 74.6066 402.048 74.7996 402.029 75.6618C401.975 78.4955 401.981 81.3353 402.029 84.1751C402.029 84.9348 401.848 85.1519 401.068 85.1459C396.51 85.1097 391.951 85.1459 387.392 85.1037C386.51 85.1037 386.34 85.3629 386.34 86.1889C386.34 96.891 386.34 107.587 386.383 118.289C386.383 119.133 386.189 119.368 385.325 119.356C381.762 119.304 378.196 119.304 374.629 119.356C373.831 119.356 373.674 119.127 373.674 118.379C373.722 110.276 373.71 102.173 373.71 92.5499Z" fill="#2F529F"/>
<path d="M213.131 98.0667C213.131 91.3661 213.131 84.6676 213.131 77.971C213.131 77.4103 213.101 76.9762 213.838 76.7652C220.241 74.6971 226.746 73.3707 233.524 73.8229C236.156 73.9928 238.766 74.4168 241.317 75.089C241.982 75.2639 242.23 75.499 242.048 76.2949C241.402 79.1226 240.839 81.9685 240.319 84.8203C240.168 85.6222 239.944 85.8574 239.074 85.6283C235.132 84.5852 231.154 84.1089 227.079 84.8686C226.111 85.0494 225.737 85.3208 225.743 86.394C225.791 96.9875 225.743 107.587 225.797 118.181C225.797 119.205 225.507 119.386 224.552 119.386C221.089 119.326 217.627 119.326 214.165 119.386C213.27 119.386 213.119 119.115 213.125 118.301C213.143 111.542 213.131 104.801 213.131 98.0667Z" fill="#2F529F"/>
<path d="M361.824 97.0718C361.824 104.114 361.824 111.156 361.824 118.174C361.824 119.151 361.528 119.338 360.615 119.326C357.084 119.278 353.553 119.29 350.023 119.326C349.351 119.326 349.085 119.224 349.085 118.458C349.11 104.136 349.11 89.8145 349.085 75.4929C349.085 74.7634 349.291 74.5825 350.004 74.5885C353.632 74.6247 357.199 74.6368 360.802 74.5885C361.649 74.5885 361.812 74.8538 361.806 75.6316C361.818 82.7884 361.824 89.9331 361.824 97.0718Z" fill="#2F529F"/>
<path d="M363.511 61.8486C363.559 63.4748 363.119 65.0784 362.248 66.4538C361.376 67.8292 360.113 68.9137 358.619 69.5685C357.126 70.2233 355.47 70.4185 353.865 70.1291C352.26 69.8397 350.777 69.0788 349.608 67.944C348.439 66.8092 347.636 65.3522 347.303 63.7596C346.97 62.167 347.121 60.5113 347.737 59.0048C348.353 57.4983 349.406 56.2095 350.761 55.3036C352.116 54.3977 353.711 53.9159 355.343 53.92C357.475 53.91 359.525 54.7353 361.053 56.2182C362.581 57.7011 363.463 59.723 363.511 61.8486Z" fill="#2F529F"/>
</g>
</svg>