<?xml version="1.0" standalone="no"?>
<!DOCTYPE svg PUBLIC "-//W3C//DTD SVG 20010904//EN"
 "http://www.w3.org/TR/2001/REC-SVG-20010904/DTD/svg10.dtd">
<svg version="1.0" xmlns="http://www.w3.org/2000/svg"
 width="333.000000pt" height="333.000000pt" viewBox="0 0 333.000000 333.000000"
 preserveAspectRatio="xMidYMid meet">
<metadata>
Created by potrace 1.14, written by Peter Selinger 2001-2017
</metadata>
<g transform="translate(0.000000,333.000000) scale(0.100000,-0.100000)"
fill="#000000" stroke="none">
<path d="M1354 2495 c-2 -5 -5 -261 -7 -568 l-2 -559 -50 48 -50 47 0 326 -1
326 -252 3 -252 2 -2 -281 -3 -282 -53 -39 c-29 -22 -52 -34 -51 -26 1 7 1 40
0 73 l-1 60 -250 0 -250 0 -1 -25 c0 -14 -1 -129 -1 -257 l0 -231 -59 -43
c-60 -43 -74 -64 -63 -92 10 -27 42 -30 80 -8 19 12 37 21 39 21 2 0 4 -33 4
-72 -1 -40 -1 -79 0 -85 1 -10 58 -13 251 -13 l250 0 0 239 0 239 50 31 c28
17 52 31 55 31 3 0 5 -122 5 -270 l0 -270 252 2 253 3 0 188 c-1 103 1 187 3
187 2 0 26 -21 53 -47 l49 -46 0 -144 0 -143 253 0 253 0 -1 223 c0 122 1 229
4 237 2 8 25 34 51 58 l47 42 1 -262 c0 -145 1 -271 1 -280 1 -17 20 -18 250
-18 190 0 250 3 253 13 2 6 4 71 4 144 -1 148 -2 147 69 73 l40 -41 0 -92 1
-92 252 -3 252 -2 0 376 0 377 46 79 c25 43 49 80 52 82 4 2 32 -44 63 -102
90 -169 89 -170 89 213 l0 327 -32 -20 c-43 -26 -201 -119 -366 -216 -72 -43
-135 -82 -138 -88 -14 -22 19 -30 125 -29 61 1 111 -2 111 -7 0 -4 -11 -24
-25 -44 l-25 -37 -195 0 c-107 1 -198 -1 -202 -4 -4 -3 -8 -109 -7 -235 0
-127 -3 -229 -8 -226 -4 3 -29 24 -54 47 l-45 41 3 261 2 260 -59 30 c-33 17
-112 55 -175 84 -63 30 -151 71 -194 92 -44 21 -82 36 -84 34 -3 -2 -5 -113
-5 -245 l0 -241 -46 -44 c-25 -24 -48 -42 -51 -40 -3 2 -5 217 -4 479 0 262
-2 477 -5 477 -3 1 -116 2 -250 3 -155 1 -245 -3 -247 -9z"/>
</g>
</svg>
