<svg id="Camada_1" data-name="Camada 1" xmlns="http://www.w3.org/2000/svg" viewBox="0 0 841.89 311.81"><defs><style>.cls-1{fill:#e63338;}.cls-2{fill:#2f529f;}</style></defs><title>Predify [Convertido]</title><path class="cls-1" d="M170.85,222.73q-37,0-74,0c-1.44,0-1.89-.26-1.89-1.82Q95,155.36,95,89.78c0-1.37.27-1.8,1.73-1.8Q171,88,245.21,88c1.59,0,1.82.49,1.82,1.91Q247,155.3,247,220.7c0,1.6-.33,2.07-2,2.07Q207.93,222.68,170.85,222.73Zm.07-10.12q32.15,0,64.3,0c1.3,0,1.7-.28,1.7-1.65q-.07-39,0-77.91a3,3,0,0,0-1-2.35c-2.85-2.77-5.68-5.55-8.42-8.42-1-1-1.48-1-2.51,0q-31,29.82-62.11,59.59c-.93.89-1.44.95-2.41,0-11.34-10.7-22.73-21.35-34.08-32-.86-.82-1.31-1-2.26,0q-8.89,8.91-17.93,17.67a3.37,3.37,0,0,0-1.09,2.67c0,13.55,0,27.11,0,40.66,0,1.56.44,1.83,1.89,1.83Q138.94,212.57,170.92,212.61Zm-65.56-70.84c.44-.39.84-.75,1.24-1.12,5.71-5.35,11.45-10.66,17.09-16.08,1.1-1.05,1.63-.92,2.67,0,11.42,10.69,22.91,21.31,34.34,32,.85.8,1.29.82,2.13,0q24.29-24.29,48.66-48.5c1-1,.85-1.5-.07-2.35-2.28-2.12-4.51-4.31-6.69-6.54a3.42,3.42,0,0,0-2.68-1.1q-47.62,0-95.24,0c-1.45,0-1.76.42-1.75,1.8.05,13.43,0,26.87,0,40.3A2.26,2.26,0,0,0,105.37,141.77Z"/><path class="cls-2" d="M536.68,125.35v-2c0-9.92,0-19.84,0-29.77,0-1.17.26-1.69,1.5-1.87,5.88-.87,11.76-1.77,17.61-2.83,1.63-.3,2,0,2,1.63q-.07,50.6,0,101.21c0,3.9,0,3.93-3.72,4.78-10.1,2.3-20.32,3.76-30.68,3-13.58-.95-24.37-6.61-30.46-19.42a39.75,39.75,0,0,1-3.64-14.76c-.57-9.18.37-18.13,4.53-26.48,5.22-10.48,13.87-15.78,25.44-16.57a34.49,34.49,0,0,1,16.6,2.72C536,125.17,536.27,125.23,536.68,125.35Zm0,36.61c0-5.84,0-11.68,0-17.52a2.21,2.21,0,0,0-1.57-2.4,24.47,24.47,0,0,0-11.43-2,12.26,12.26,0,0,0-11,7.33,23.49,23.49,0,0,0-2.1,8.18c-.54,6.16-.34,12.24,2.57,17.91a14.35,14.35,0,0,0,11.33,8.22,46.32,46.32,0,0,0,10.84-.26c1.1-.11,1.34-.57,1.33-1.61C536.66,173.86,536.68,167.91,536.68,162Z"/><path class="cls-2" d="M288.53,196.12c0,4.5,0,8.75,0,13,0,4.42,0,8.84,0,13.26,0,1.1-.28,1.44-1.41,1.43-6.06-.06-12.13-.07-18.2,0-1.28,0-1.45-.46-1.44-1.57.05-5.1,0-10.2,0-15.3q0-39.37,0-78.74c0-1.55.47-2.11,1.95-2.46,11.08-2.59,22.24-4.23,33.67-3.39,17.4,1.28,30.14,13.21,32.47,30.46,1.38,10.19.71,20.18-3.81,29.56-5.19,10.77-14,16.27-25.89,16.9A38.2,38.2,0,0,1,288.53,196.12Zm0-36.49q0,8.59,0,17.17a.87.87,0,0,1,0,.17c-.29,1.44.45,2.12,1.71,2.63a28.66,28.66,0,0,0,7,1.87c8.27,1.12,14.12-2.41,16.29-10.13a34.23,34.23,0,0,0-.17-19.77c-2-6.27-6-10.51-12.75-11.4a45.76,45.76,0,0,0-10.35.19c-1.36.13-1.81.53-1.79,1.94C288.58,148.07,288.53,153.85,288.53,159.63Z"/><path class="cls-2" d="M710.69,172.35a7,7,0,0,0,1.16-2.68c5-14.52,9.1-29.28,12.94-44.13.37-1.42,1-1.82,2.39-1.8,6.52.08,13,0,19.76,0-.81,2.72-1.57,5.31-2.36,7.89A538.56,538.56,0,0,1,719.39,199c-2.93,6.4-6.08,12.68-11.17,17.73a24.36,24.36,0,0,1-17.17,7c-5.87.17-11.66-.1-17.27-2.06-1.3-.45-1.74-.92-1.39-2.37,1.11-4.56,2.09-9.16,3-13.76.22-1.07.53-1.25,1.54-.9a28.7,28.7,0,0,0,11.55,1.47,10.52,10.52,0,0,0,8.09-4.38l1-1.37c2.34-3.16,2.81-6,.82-10a379.5,379.5,0,0,1-25.19-65c-.42-1.47-.2-1.76,1.31-1.74,6.18.08,12.36.1,18.54,0,1.59,0,2.08.53,2.46,1.94a476.2,476.2,0,0,0,14.66,45.55C710.35,171.58,710.51,171.93,710.69,172.35Z"/><path class="cls-2" d="M452.1,167.7c-7.31,0-14.63,0-21.94,0-1.37,0-1.91.13-1.5,1.75,1.75,7,6.69,10.46,13.29,11.77,8.78,1.74,17.37.36,25.76-2.41,1.24-.41,1.56-.32,1.76,1q1.07,7.22,2.39,14.41c.22,1.18-.44,1.36-1.17,1.65a54.46,54.46,0,0,1-11.49,2.93c-8.22,1.29-16.47,1.85-24.66-.07-14.86-3.48-24-12.67-26.73-27.75-1.87-10.36-1.22-20.55,3.65-30.15a34.37,34.37,0,0,1,33.95-18.9c6.82.55,13.13,2.33,18.59,6.6,6.55,5.12,9.89,12.08,11.4,20.06a66.94,66.94,0,0,1,.69,18c-.09,1.17-.66,1.2-1.54,1.2Q463.33,167.68,452.1,167.7Zm-9.84-14.32c4.19,0,8.39,0,12.58,0,.95,0,1.31-.22,1.19-1.23a17.76,17.76,0,0,0-1.56-5.88c-2.58-5.2-6.92-7.38-12.6-7.19a12.78,12.78,0,0,0-11.95,8.54,30.68,30.68,0,0,0-1.11,3.74c-.48,2-.45,2,1.54,2Z"/><path class="cls-2" d="M618.12,153.5c.14-10.74-.42-24,.23-37.27.47-9.53,4.27-17.56,12.56-22.91,4.64-3,9.89-4.14,15.31-4.55a50.75,50.75,0,0,1,21.06,2.86c1.12.4,1.31.85,1,1.93q-1.78,7-3.42,14c-.27,1.14-.69,1.21-1.7.81a30,30,0,0,0-11.3-2c-8.14.07-12.37,4.11-12.79,12.23-.06,1.24.05,2.5-.06,3.74s.41,1.47,1.54,1.46c7.54,0,15.08,0,22.62-.06,1.39,0,1.82.32,1.79,1.75-.09,4.7-.08,9.41,0,14.12,0,1.26-.3,1.62-1.59,1.61-7.54-.06-15.08,0-22.62-.07-1.46,0-1.74.43-1.74,1.8,0,17.75,0,35.49.07,53.24,0,1.4-.32,1.79-1.75,1.77q-8.84-.13-17.69,0c-1.32,0-1.58-.38-1.58-1.62C618.14,182.9,618.12,169.46,618.12,153.5Z"/><path class="cls-2" d="M352.52,162.65q0-16.67,0-33.33c0-.93-.05-1.65,1.17-2,10.59-3.43,21.35-5.63,32.56-4.88a67.52,67.52,0,0,1,12.89,2.1c1.1.29,1.51.68,1.21,2-1.07,4.69-2,9.41-2.86,14.14-.25,1.33-.62,1.72-2.06,1.34-6.52-1.73-13.1-2.52-19.84-1.26-1.6.3-2.22.75-2.21,2.53.08,17.57,0,35.15.09,52.72,0,1.7-.48,2-2.06,2q-8.59-.15-17.18,0c-1.48,0-1.73-.45-1.72-1.8C352.54,185,352.52,173.82,352.52,162.65Z"/><path class="cls-2" d="M598.46,161c0,11.68,0,23.36,0,35,0,1.62-.49,1.93-2,1.91-5.84-.08-11.68-.06-17.52,0-1.11,0-1.55-.17-1.55-1.44q.06-35.63,0-71.26c0-1.21.34-1.51,1.52-1.5,6,.06,11.9.08,17.86,0,1.4,0,1.67.44,1.66,1.73C598.45,137.31,598.46,149.16,598.46,161Z"/><path class="cls-2" d="M601.25,102.58a13.55,13.55,0,1,1-13.51-13.15A13.45,13.45,0,0,1,601.25,102.58Z"/></svg>